<svg width="24" height="24" viewBox="0 0 24 24" fill="none" xmlns="http://www.w3.org/2000/svg">
<path d="M17.9713 20.4H6.02889C5.41643 20.4264 4.80795 20.2893 4.26593 20.0029C3.72389 19.7166 3.2678 19.2912 2.9444 18.7705C2.62099 18.2497 2.44192 17.6522 2.42555 17.0394C2.40919 16.4265 2.55614 15.8205 2.85129 15.2832L8.82247 4.90557C9.1535 4.35913 9.61988 3.90731 10.1765 3.59371C10.7331 3.28012 11.3612 3.11536 12 3.11536C12.6389 3.11536 13.267 3.28012 13.8237 3.59371C14.3803 3.90731 14.8467 4.35913 15.1777 4.90557L21.1489 15.2832C21.444 15.8205 21.591 16.4265 21.5746 17.0394C21.5583 17.6522 21.3792 18.2497 21.0558 18.7705C20.7324 19.2912 20.2762 19.7166 19.7342 20.0029C19.1922 20.2893 18.5837 20.4264 17.9713 20.4Z" stroke="#FF5B5B" stroke-linecap="round" stroke-linejoin="round"/>
<path d="M10.9257 16.464C10.9257 16.322 10.9538 16.1814 11.0084 16.0504C11.063 15.9192 11.1431 15.8003 11.244 15.7003C11.3448 15.6004 11.4645 15.5214 11.596 15.4679C11.7276 15.4145 11.8684 15.3876 12.0105 15.3888C12.2199 15.3927 12.4236 15.458 12.5962 15.577C12.7686 15.6959 12.9022 15.8632 12.9803 16.0576C13.0582 16.2521 13.0771 16.4652 13.0347 16.6703C12.9922 16.8755 12.8901 17.0635 12.7413 17.2111C12.5925 17.3586 12.4035 17.4589 12.1979 17.4996C11.9924 17.5403 11.7795 17.5194 11.5858 17.4397C11.3919 17.36 11.226 17.2249 11.1086 17.0514C10.9912 16.8779 10.9276 16.6736 10.9257 16.464ZM11.2713 13.8432L11.1369 8.83204C11.1241 8.71157 11.1368 8.58978 11.1742 8.47456C11.2115 8.35933 11.2727 8.25324 11.3537 8.16319C11.4347 8.07314 11.5338 8.00114 11.6444 7.95184C11.7551 7.90255 11.8749 7.87708 11.9961 7.87708C12.1172 7.87708 12.237 7.90255 12.3476 7.95184C12.4583 8.00114 12.5573 8.07314 12.6383 8.16319C12.7193 8.25324 12.7806 8.35933 12.8179 8.47456C12.8553 8.58978 12.868 8.71157 12.8553 8.83204L12.7305 13.8432C12.7305 14.0367 12.6536 14.2223 12.5168 14.3591C12.3799 14.4959 12.1943 14.5728 12.0009 14.5728C11.8073 14.5728 11.6218 14.4959 11.485 14.3591C11.3482 14.2223 11.2713 14.0367 11.2713 13.8432Z" fill="#FF5B5B"/>
</svg>
