<svg width="16" height="16" viewBox="0 0 16 16" fill="none" xmlns="http://www.w3.org/2000/svg">
<path d="M11.4676 1.33337H4.53251C3.56067 1.33337 2.70801 1.98984 2.66907 2.93574C2.62006 4.1259 3.45709 4.91619 4.33623 5.65811C5.55241 6.68444 6.1605 7.19764 6.22428 7.84724C6.23426 7.94891 6.23426 8.05117 6.22428 8.15284C6.1605 8.80244 5.55241 9.31564 4.33623 10.342C3.43288 11.1043 2.61753 11.813 2.66907 13.0643C2.70801 14.0102 3.56067 14.6667 4.53251 14.6667H11.4676C12.4394 14.6667 13.2921 14.0102 13.331 13.0643C13.362 12.3112 13.0829 11.5614 12.4901 11.04C12.2199 10.8023 11.9393 10.5744 11.6639 10.342C10.4477 9.31564 9.8396 8.80244 9.7758 8.15284C9.7658 8.05117 9.7658 7.94891 9.7758 7.84724C9.8396 7.19764 10.4477 6.68444 11.6639 5.65811C12.5577 4.90376 13.3819 4.1721 13.331 2.93574C13.2921 1.98984 12.4394 1.33337 11.4676 1.33337Z" stroke="#1B1C3A" stroke-width="1.5"/>
<path opacity="0.4" d="M6 14.4254C6 14.1308 6 13.9834 6.0584 13.8547C6.06767 13.8342 6.07799 13.8142 6.08933 13.7948C6.16067 13.6726 6.28141 13.5864 6.52288 13.4138C7.19367 12.9347 7.529 12.6951 7.91013 12.6696C7.97 12.6656 8.03 12.6656 8.08987 12.6696C8.471 12.6951 8.80633 12.9347 9.47713 13.4138C9.7186 13.5864 9.83933 13.6726 9.91067 13.7948C9.922 13.8142 9.93233 13.8342 9.9416 13.8547C10 13.9834 10 14.1308 10 14.4254V14.6666H6V14.4254Z" stroke="#1B1C3A" stroke-width="1.5" stroke-linecap="round"/>
</svg>
