<svg width="240" height="249" viewBox="0 0 240 249" fill="none" xmlns="http://www.w3.org/2000/svg">
<path d="M221.838 49.5258C223.17 48.9373 224.301 47.971 225.09 46.7466C225.879 45.5221 226.292 44.0931 226.277 42.6365C226.277 38.522 223.177 35.1754 219.321 35.1586C215.464 35.1418 212.325 38.4603 212.308 42.5748C212.281 44.0435 212.689 45.4873 213.481 46.7243C214.273 47.9613 215.414 48.9361 216.759 49.5258C206.013 51.1459 206.501 62.828 206.501 62.828L231.911 62.9457C231.911 62.9457 232.494 51.1347 221.838 49.5258Z" fill="#F5F5F5"/>
<path d="M71.6906 5.87471L55.081 0L38.6341 5.79623C36.5376 6.77162 34.7101 7.3546 34.7101 9.28294V18.8742C34.6895 25.6105 36.5682 32.2162 40.1308 37.9334C43.7165 43.7608 48.9974 48.3532 55.266 51.0954C61.9928 48.9429 67.0042 43.2139 70.0761 38.309C73.6345 32.5902 75.5111 25.9852 75.4912 19.2498V10.6227C75.4688 7.87593 73.9889 6.53618 71.6906 5.87471Z" fill="#F5F5F5"/>
<path d="M60.5802 21.3575C60.5841 20.5016 60.3491 19.6615 59.9014 18.932C59.4537 18.2024 58.8112 17.6124 58.0463 17.2283C57.2814 16.8442 56.4244 16.6813 55.5719 16.758C54.7194 16.8346 53.9052 17.1478 53.2211 17.6622C52.537 18.1766 52.0101 18.8718 51.6997 19.6695C51.3894 20.4672 51.308 21.3357 51.4646 22.1772C51.6212 23.0187 52.0096 23.7997 52.5862 24.4324C53.1628 25.065 53.9045 25.5241 54.7279 25.7579V32.636H57.2392V25.7579C58.1992 25.4882 59.045 24.9125 59.648 24.1182C60.251 23.324 60.5783 22.3547 60.5802 21.3575Z" fill="#EBEBEB"/>
<path d="M212.908 94.7634L215.739 96.2993L214.466 98.4295L211.607 96.7478L211.663 99.8925H209.219V96.7197L206.388 98.4127L205.138 96.2825L207.969 94.7466L205.138 93.1882L206.388 91.0581L209.242 92.807V89.6342H211.686L211.63 92.807L214.489 91.0917L215.761 93.2218L212.908 94.7634Z" fill="#E0E0E0"/>
<path d="M224.702 94.7634L227.533 96.2994L226.261 98.4295L223.402 96.7478L223.458 99.8926H221.014L221.042 96.7198L218.183 98.4351L216.933 96.305L219.764 94.769L216.933 93.2107L218.183 91.0805L221.042 92.7958L221.014 89.623H223.458L223.402 92.7958L226.261 91.0805L227.533 93.2107L224.702 94.7634Z" fill="#E0E0E0"/>
<path d="M236.496 94.7634L239.333 96.2994L238.06 98.4295L235.202 96.7478L235.252 99.8926H232.808L232.836 96.7198L229.977 98.4351L228.727 96.305L231.564 94.769L228.749 93.205L230 91.0749L232.858 92.7902L232.83 89.6174H235.274L235.224 92.7902L238.083 91.0749L239.355 93.205L236.496 94.7634Z" fill="#E0E0E0"/>
<path d="M116.491 228.946V246.357H141.952H170.036V228.946H116.491Z" fill="#F5F5F5"/>
<path d="M114.243 224.074V228.946H171.908V224.074H141.952H114.243Z" fill="#EBEBEB"/>
<path d="M143.073 246.357H170.036V228.946H171.908V224.074H141.952V228.492L143.073 246.357Z" fill="#EBEBEB"/>
<path d="M134.838 231.748H123.98V234.372H134.838V231.748Z" fill="#E0E0E0"/>
<path d="M136.525 237.651H122.579V243.184H136.525V237.651Z" fill="white"/>
<path d="M124.726 206.686V224.097H150.192H178.276V206.686H124.726Z" fill="#F5F5F5"/>
<path d="M122.478 201.814V206.686H180.149V201.814H150.192H122.478Z" fill="#EBEBEB"/>
<path d="M151.313 224.097H178.276V206.686H180.148V201.814H150.192V206.237L151.313 224.097Z" fill="#EBEBEB"/>
<path d="M143.073 209.494H132.215V212.118H143.073V209.494Z" fill="#E0E0E0"/>
<path d="M144.766 215.391H130.819V220.924H144.766V215.391Z" fill="white"/>
<path d="M240 246.491C240 246.57 186.27 246.637 120.006 246.637C53.7413 246.637 0 246.57 0 246.491C0 246.413 53.7189 246.346 120.006 246.346C186.292 246.346 240 246.402 240 246.491Z" fill="#263238"/>
<path d="M203.406 121.239H119.871C117.896 121.239 116.295 122.84 116.295 124.815V168.057C116.295 170.032 117.896 171.634 119.871 171.634H203.406C205.382 171.634 206.983 170.032 206.983 168.057V124.815C206.983 122.84 205.382 121.239 203.406 121.239Z" fill="white"/>
<path d="M203.412 171.634C203.412 171.634 203.653 171.634 204.113 171.549C204.794 171.402 205.419 171.061 205.912 170.568C206.272 170.206 206.549 169.77 206.725 169.29C206.826 169.013 206.893 168.726 206.927 168.433C206.927 168.13 206.927 167.805 206.927 167.469C206.927 166.123 206.927 164.57 206.927 162.827C206.927 155.837 206.899 145.735 206.882 133.252C206.882 131.688 206.882 130.09 206.882 128.459V125.981C206.882 125.146 206.966 124.3 206.624 123.526C206.388 122.94 205.997 122.43 205.492 122.051C204.987 121.671 204.388 121.437 203.76 121.373C203.345 121.345 202.885 121.373 202.448 121.373H197.038H173.596H119.882C119.31 121.372 118.747 121.514 118.244 121.786C117.74 122.059 117.313 122.452 117.001 122.932C116.683 123.407 116.49 123.954 116.44 124.524C116.412 125.084 116.44 125.701 116.44 126.284V147.014C116.44 151.498 116.44 155.908 116.44 160.243V166.656C116.44 167.183 116.44 167.715 116.44 168.231C116.466 168.736 116.6 169.229 116.833 169.677C117.072 170.117 117.403 170.501 117.803 170.802C118.204 171.103 118.664 171.314 119.154 171.421C119.652 171.501 120.157 171.527 120.661 171.499H142.563H162.99L192.565 171.544L200.604 171.572L192.565 171.6L162.99 171.645H142.563H120.661C120.139 171.672 119.614 171.644 119.098 171.561C118.569 171.447 118.072 171.219 117.64 170.894C117.208 170.569 116.853 170.154 116.597 169.677C116.34 169.196 116.192 168.664 116.166 168.119C116.166 167.558 116.166 167.065 116.166 166.532C116.166 164.419 116.166 162.278 116.166 160.12V147.014C116.166 142.529 116.166 137.96 116.166 133.308V126.301C116.166 125.707 116.166 125.135 116.166 124.518C116.208 123.905 116.4 123.312 116.726 122.792C117.067 122.274 117.529 121.847 118.072 121.547C118.621 121.255 119.232 121.099 119.854 121.093H173.568H197.01H202.42C202.868 121.093 203.294 121.093 203.754 121.093C204.203 121.14 204.64 121.269 205.043 121.474C205.843 121.88 206.47 122.561 206.809 123.391C206.973 123.798 207.06 124.231 207.067 124.669C207.067 125.09 207.067 125.51 207.067 125.931V128.408C207.067 130.038 207.067 131.635 207.067 133.201C207.067 145.685 207.028 155.786 207.016 162.777C207.016 164.52 207.016 166.073 207.016 167.418C207.016 167.754 207.016 168.074 207.016 168.388C206.981 168.687 206.909 168.98 206.803 169.262C206.623 169.75 206.337 170.192 205.968 170.557C205.463 171.054 204.824 171.391 204.13 171.527C203.956 171.56 203.779 171.578 203.603 171.583L203.412 171.634Z" fill="#263238"/>
<path d="M147.894 139.048V139.676H145.27V136.312H147.826V136.94H146.049V137.652H147.619V138.263H146.049V139.048H147.894Z" fill="#263238"/>
<path d="M151.627 136.29V139.653H150.982L149.301 137.596V139.653H148.527V136.29H149.149L150.831 138.347V136.29H151.627Z" fill="#263238"/>
<path d="M153.135 136.929H152.048V136.29H155.002V136.929H153.914V139.676H153.135V136.929Z" fill="#263238"/>
<path d="M158.046 139.048V139.676H155.422V136.312H157.984V136.94H156.201V137.652H157.776V138.263H156.201V139.048H158.046Z" fill="#263238"/>
<path d="M160.832 139.676L160.176 138.734H159.458V139.676H158.679V136.312H160.148C161.05 136.312 161.616 136.778 161.616 137.54C161.623 137.768 161.56 137.993 161.436 138.184C161.312 138.375 161.132 138.524 160.921 138.611L161.678 139.698L160.832 139.676ZM160.097 136.929H159.458V138.106H160.097C160.574 138.106 160.815 137.888 160.815 137.518C160.815 137.148 160.574 136.929 160.097 136.929Z" fill="#263238"/>
<path d="M163.388 137.983C163.41 137.618 163.538 137.267 163.758 136.974C163.978 136.681 164.279 136.46 164.623 136.337C164.968 136.214 165.341 136.195 165.697 136.282C166.052 136.369 166.374 136.559 166.622 136.828L166.118 137.293C166.013 137.169 165.882 137.069 165.735 137.001C165.588 136.932 165.428 136.896 165.266 136.895C164.991 136.915 164.735 137.038 164.548 137.239C164.36 137.44 164.256 137.705 164.256 137.98C164.256 138.255 164.36 138.52 164.548 138.721C164.735 138.922 164.991 139.045 165.266 139.065C165.428 139.067 165.59 139.033 165.737 138.964C165.885 138.895 166.015 138.793 166.118 138.667L166.622 139.132C166.375 139.403 166.054 139.595 165.698 139.685C165.342 139.774 164.968 139.756 164.623 139.633C164.277 139.51 163.976 139.288 163.756 138.994C163.536 138.701 163.408 138.349 163.388 137.983Z" fill="#263238"/>
<path d="M166.869 137.983C166.849 137.612 166.94 137.244 167.132 136.925C167.323 136.607 167.606 136.354 167.943 136.198C168.28 136.042 168.656 135.991 169.022 136.051C169.389 136.111 169.729 136.28 169.998 136.536C170.268 136.791 170.454 137.122 170.534 137.485C170.613 137.848 170.582 138.226 170.444 138.571C170.307 138.916 170.068 139.211 169.761 139.419C169.453 139.627 169.09 139.738 168.719 139.737C168.48 139.751 168.241 139.716 168.017 139.634C167.793 139.552 167.587 139.425 167.414 139.26C167.241 139.096 167.103 138.898 167.009 138.678C166.915 138.458 166.868 138.222 166.869 137.983ZM169.778 137.983C169.774 137.774 169.708 137.572 169.589 137.401C169.47 137.229 169.303 137.097 169.109 137.02C168.915 136.943 168.703 136.926 168.498 136.969C168.294 137.012 168.108 137.115 167.962 137.264C167.816 137.413 167.717 137.602 167.678 137.807C167.639 138.012 167.661 138.224 167.742 138.416C167.823 138.608 167.959 138.772 168.132 138.888C168.306 139.003 168.51 139.065 168.719 139.065C168.861 139.068 169.002 139.042 169.133 138.989C169.265 138.935 169.384 138.855 169.483 138.754C169.582 138.652 169.66 138.531 169.71 138.399C169.761 138.266 169.784 138.125 169.778 137.983Z" fill="#263238"/>
<path d="M171.168 136.29H172.693C173.139 136.29 173.567 136.467 173.882 136.783C174.198 137.098 174.375 137.526 174.375 137.972C174.375 138.418 174.198 138.845 173.882 139.161C173.567 139.476 173.139 139.653 172.693 139.653H171.157L171.168 136.29ZM172.665 139.031C172.943 139.031 173.21 138.921 173.406 138.724C173.603 138.528 173.713 138.261 173.713 137.983C173.713 137.705 173.603 137.438 173.406 137.242C173.21 137.045 172.943 136.935 172.665 136.935H171.953V139.031H172.665Z" fill="#263238"/>
<path d="M177.788 139.048V139.676H175.165V136.312H177.738V136.94H175.944V137.652H177.519V138.263H175.944V139.048H177.788Z" fill="#263238"/>
<path d="M135.034 145.085H126.8C125.577 145.085 124.585 146.077 124.585 147.299V160.12C124.585 161.342 125.577 162.334 126.8 162.334H135.034C136.257 162.334 137.249 161.342 137.249 160.12V147.299C137.249 146.077 136.257 145.085 135.034 145.085Z" fill="#EBEBEB"/>
<path d="M150.848 145.085H142.613C141.39 145.085 140.399 146.077 140.399 147.299V160.12C140.399 161.342 141.39 162.334 142.613 162.334H150.848C152.071 162.334 153.062 161.342 153.062 160.12V147.299C153.062 146.077 152.071 145.085 150.848 145.085Z" fill="#EBEBEB"/>
<path d="M166.661 145.085H158.427C157.204 145.085 156.212 146.077 156.212 147.299V160.12C156.212 161.342 157.204 162.334 158.427 162.334H166.661C167.884 162.334 168.876 161.342 168.876 160.12V147.299C168.876 146.077 167.884 145.085 166.661 145.085Z" fill="#EBEBEB"/>
<path d="M182.469 145.085H174.235C173.012 145.085 172.021 146.077 172.021 147.299V160.12C172.021 161.342 173.012 162.334 174.235 162.334H182.469C183.692 162.334 184.684 161.342 184.684 160.12V147.299C184.684 146.077 183.692 145.085 182.469 145.085Z" fill="#EBEBEB"/>
<path d="M198.283 145.085H190.048C188.825 145.085 187.834 146.077 187.834 147.299V160.12C187.834 161.342 188.825 162.334 190.048 162.334H198.283C199.506 162.334 200.497 161.342 200.497 160.12V147.299C200.497 146.077 199.506 145.085 198.283 145.085Z" fill="#EBEBEB"/>
<path d="M133.678 155.03C133.678 156.257 132.725 157.059 131.436 157.059C129.664 157.059 128.728 155.786 128.728 153.696C128.728 151.42 129.944 150.242 131.721 150.242C132.254 150.218 132.782 150.339 133.252 150.59L133.05 150.982C132.644 150.76 132.184 150.653 131.721 150.674C130.214 150.674 129.221 151.666 129.221 153.623C129.221 153.893 129.24 154.162 129.277 154.43C129.435 153.996 129.73 153.626 130.118 153.376C130.506 153.126 130.964 153.01 131.424 153.045C132.77 153.045 133.678 153.83 133.678 155.03ZM133.185 155.03C133.185 154.071 132.495 153.443 131.357 153.443C131.127 153.418 130.895 153.44 130.674 153.508C130.453 153.577 130.248 153.69 130.073 153.841C129.898 153.992 129.756 154.177 129.655 154.386C129.555 154.594 129.499 154.821 129.49 155.052C129.49 155.842 130.152 156.627 131.413 156.627C131.637 156.652 131.864 156.629 132.078 156.559C132.292 156.49 132.49 156.376 132.657 156.226C132.824 156.075 132.958 155.89 133.049 155.684C133.14 155.478 133.186 155.255 133.185 155.03Z" fill="#2F80ED"/>
<path d="M149.318 155.159H147.905V157.025H147.423V155.159H143.583V154.805L147.238 150.293H147.798L144.211 154.727H147.445V153.085H147.916V154.727H149.329L149.318 155.159Z" fill="#2F80ED"/>
<path d="M165.624 157.984C163.673 158.178 161.707 158.178 159.755 157.984C161.707 157.789 163.673 157.789 165.624 157.984Z" fill="#2F80ED"/>
<path d="M122.052 127.646C122.81 127.646 123.425 127.031 123.425 126.273C123.425 125.514 122.81 124.899 122.052 124.899C121.293 124.899 120.678 125.514 120.678 126.273C120.678 127.031 121.293 127.646 122.052 127.646Z" fill="#263238"/>
<path d="M127.383 126.273C127.383 126.544 127.302 126.81 127.151 127.036C127 127.262 126.786 127.438 126.535 127.542C126.284 127.646 126.008 127.673 125.741 127.62C125.475 127.567 125.23 127.436 125.038 127.244C124.846 127.052 124.715 126.807 124.662 126.541C124.609 126.274 124.637 125.998 124.741 125.747C124.844 125.496 125.021 125.282 125.246 125.131C125.472 124.98 125.738 124.899 126.009 124.899C126.374 124.899 126.723 125.044 126.981 125.302C127.238 125.559 127.383 125.908 127.383 126.273Z" fill="#263238"/>
<path d="M129.894 127.646C130.652 127.646 131.267 127.031 131.267 126.273C131.267 125.514 130.652 124.899 129.894 124.899C129.135 124.899 128.521 125.514 128.521 126.273C128.521 127.031 129.135 127.646 129.894 127.646Z" fill="#263238"/>
<path d="M207.123 130.141C207.123 130.219 186.814 130.286 161.773 130.286C136.733 130.286 116.424 130.219 116.424 130.141C116.424 130.062 136.722 129.995 161.773 129.995C186.825 129.995 207.123 130.056 207.123 130.141Z" fill="#263238"/>
<path d="M190.468 10.5666H90.3292C88.2982 10.5666 86.6519 12.213 86.6519 14.2439V106.373C86.6519 108.404 88.2982 110.05 90.3292 110.05H190.468C192.499 110.05 194.146 108.404 194.146 106.373V14.2439C194.146 12.213 192.499 10.5666 190.468 10.5666Z" fill="white"/>
<path d="M190.468 110.05H190.732C190.992 110.028 191.25 109.98 191.5 109.904C191.989 109.755 192.441 109.504 192.827 109.169C193.213 108.834 193.525 108.422 193.742 107.959C194.044 107.264 194.164 106.504 194.09 105.75C194.09 104.915 194.09 103.996 194.09 103.004C194.09 101.019 194.09 98.7265 194.09 96.1479C194.09 85.8336 194.062 70.9226 194.039 52.4688C194.039 43.2475 194.039 33.1517 194.039 22.3048C194.039 19.5992 194.039 16.8468 194.039 14.0477C193.997 13.3633 193.758 12.7059 193.35 12.1547C192.942 11.6036 192.383 11.1824 191.741 10.9422C191.073 10.731 190.37 10.6548 189.672 10.718H169.666H90.3404C89.4987 10.7228 88.686 11.0268 88.0477 11.5756C87.3883 12.1325 86.9572 12.9128 86.8369 13.7674C86.7983 14.196 86.7852 14.6266 86.7977 15.0567V49.5707C86.7977 62.8392 86.7977 75.6369 86.7977 87.8292C86.7977 93.9281 86.7977 99.8682 86.7977 105.65C86.7977 106.008 86.7977 106.378 86.7977 106.72C86.83 107.064 86.9112 107.402 87.0387 107.724C87.2981 108.367 87.7405 108.921 88.3112 109.316C88.8761 109.71 89.5451 109.928 90.2339 109.943H100.61H130.774L174.453 109.994H186.326L174.453 110.022L130.774 110.067H100.61H90.2283C89.4877 110.048 88.7688 109.813 88.1602 109.391C87.5516 108.968 87.0799 108.377 86.8033 107.69C86.6657 107.345 86.577 106.983 86.5398 106.614C86.5118 106.232 86.5398 105.885 86.5398 105.521C86.5398 99.7393 86.5398 93.7992 86.5398 87.7002C86.5398 75.508 86.5398 62.7103 86.5398 49.4417C86.5398 42.8046 86.5398 36.0573 86.5398 29.1998V15.0287C86.5244 14.5853 86.5394 14.1415 86.5846 13.7002C86.7079 12.7885 87.1629 11.9542 87.8627 11.357C88.5498 10.7562 89.4278 10.4185 90.3404 10.404H169.666H189.639C190.367 10.3412 191.101 10.425 191.797 10.6507C192.484 10.908 193.082 11.3588 193.519 11.9487C193.956 12.5386 194.212 13.2423 194.258 13.9748C194.258 16.7776 194.258 19.5356 194.258 22.2488C194.258 33.0957 194.258 43.1914 194.258 52.4127C194.258 70.8553 194.224 85.7775 194.213 96.0919C194.213 98.6705 194.213 100.963 194.213 102.948C194.213 103.94 194.213 104.859 194.213 105.694C194.284 106.461 194.157 107.233 193.843 107.937C193.562 108.526 193.128 109.029 192.587 109.395C192.046 109.761 191.417 109.975 190.766 110.016L190.468 110.05Z" fill="#263238"/>
<path d="M94.7744 17.4615C94.7744 17.8299 94.6651 18.1899 94.4604 18.4961C94.2556 18.8023 93.9646 19.0408 93.6242 19.1815C93.2838 19.3222 92.9093 19.3587 92.5482 19.2864C92.187 19.2142 91.8554 19.0364 91.5954 18.7755C91.3353 18.5147 91.1585 18.1826 91.0873 17.8212C91.0162 17.4598 91.0538 17.0854 91.1955 16.7455C91.3372 16.4055 91.5767 16.1152 91.8834 15.9114C92.1902 15.7076 92.5506 15.5994 92.9189 15.6005C93.1631 15.6005 93.4048 15.6486 93.6303 15.7422C93.8558 15.8358 94.0606 15.973 94.2329 16.1459C94.4053 16.3188 94.5419 16.524 94.6348 16.7498C94.7277 16.9755 94.7751 17.2174 94.7744 17.4615Z" fill="#263238"/>
<path d="M98.334 19.317C99.3587 19.317 100.189 18.4863 100.189 17.4615C100.189 16.4368 99.3587 15.6061 98.334 15.6061C97.3092 15.6061 96.4785 16.4368 96.4785 17.4615C96.4785 18.4863 97.3092 19.317 98.334 19.317Z" fill="#263238"/>
<path d="M103.76 19.317C104.785 19.317 105.616 18.4863 105.616 17.4615C105.616 16.4368 104.785 15.6061 103.76 15.6061C102.736 15.6061 101.905 16.4368 101.905 17.4615C101.905 18.4863 102.736 19.317 103.76 19.317Z" fill="#263238"/>
<path d="M194.146 22.7364C194.146 22.8205 170.081 22.8822 140.399 22.8822C110.717 22.8822 86.6519 22.8205 86.6519 22.7364C86.6519 22.6524 110.711 22.5907 140.399 22.5907C170.086 22.5907 194.146 22.6524 194.146 22.7364Z" fill="#263238"/>
<path d="M155.585 60.2101C155.585 60.2101 155.624 60.1485 155.713 60.0364L155.786 59.9411L155.859 59.8121C155.921 59.7079 155.976 59.5992 156.022 59.487C156.022 59.4254 156.078 59.3581 156.1 59.2852L156.168 59.0498C156.192 58.9633 156.211 58.8753 156.224 58.7863C156.224 58.691 156.257 58.5957 156.263 58.4948C156.299 58.0286 156.277 57.5596 156.196 57.099C155.96 55.8384 155.528 54.6223 154.918 53.4946C154.13 51.9894 153.209 50.558 152.165 49.2175C150.909 47.5871 149.54 46.0473 148.067 44.6096C146.382 42.9548 144.582 41.4207 142.68 40.0186C141.677 39.2787 140.618 38.5611 139.502 37.8885C138.365 37.1937 137.183 36.5739 135.965 36.033C134.713 35.4615 133.395 35.0472 132.041 34.7998C131.349 34.6765 130.642 34.6595 129.944 34.7493C129.594 34.799 129.253 34.8971 128.93 35.0408C128.613 35.1964 128.326 35.4071 128.083 35.663C127.851 35.9315 127.673 36.2416 127.556 36.5768C127.451 36.9147 127.393 37.2655 127.383 37.6194C127.373 38.323 127.47 39.0241 127.668 39.6991C128.07 41.0197 128.635 42.2851 129.35 43.4661C130.024 44.6149 130.773 45.7179 131.592 46.7678C132.388 47.7992 133.224 48.7746 134.07 49.6884C135.68 51.4178 137.411 53.0307 139.25 54.5148C140.845 55.8156 142.531 57.0014 144.295 58.0632C145.746 58.9454 147.273 59.6959 148.858 60.3054C150.049 60.7809 151.306 61.0719 152.586 61.1687C153.051 61.1917 153.518 61.1597 153.976 61.0734C154.077 61.0734 154.166 61.023 154.256 61.0005C154.344 60.9775 154.43 60.9495 154.514 60.9165L154.738 60.8212L154.934 60.7203C155.041 60.6622 155.142 60.5947 155.237 60.5184L155.355 60.4344L155.444 60.3503C155.545 60.2494 155.601 60.2045 155.601 60.2045L155.45 60.3559L155.36 60.44L155.248 60.5297C155.152 60.6071 155.049 60.6747 154.94 60.7315L154.755 60.8548L154.525 60.9501C154.443 60.9847 154.359 61.0128 154.273 61.0342C154.179 61.0662 154.084 61.0925 153.987 61.1127C153.526 61.207 153.055 61.2409 152.586 61.2136C151.303 61.1264 150.042 60.8409 148.847 60.3671C147.256 59.7582 145.723 59.0077 144.267 58.1248C142.503 57.0629 140.817 55.8771 139.222 54.5765C137.378 53.0942 135.643 51.4812 134.031 49.75C133.184 48.8363 132.349 47.8609 131.548 46.8295C130.73 45.7742 129.981 44.6676 129.305 43.5165C128.59 42.3301 128.025 41.059 127.624 39.7327C127.419 39.0491 127.321 38.3383 127.332 37.625C127.344 37.2654 127.404 36.909 127.512 36.5655C127.639 36.2181 127.829 35.897 128.072 35.6182C128.321 35.3518 128.617 35.135 128.947 34.9791C129.277 34.8318 129.626 34.7299 129.984 34.6764C130.69 34.5865 131.407 34.6035 132.108 34.7269C133.472 34.9764 134.799 35.3945 136.06 35.9713C137.281 36.5129 138.464 37.1346 139.603 37.8324C140.724 38.5051 141.783 39.2226 142.787 39.9682C144.691 41.3727 146.491 42.9127 148.174 44.576C149.65 46.0162 151.021 47.5598 152.277 49.1951C153.318 50.5393 154.235 51.9746 155.018 53.4834C155.628 54.6171 156.057 55.8388 156.291 57.1046C156.369 57.5694 156.388 58.0421 156.347 58.5116C156.338 58.6078 156.323 58.7033 156.302 58.7975C156.293 58.8871 156.274 58.9755 156.246 59.061L156.179 59.302C156.155 59.371 156.127 59.4385 156.095 59.5038C156.053 59.6188 155.996 59.7281 155.927 59.829C155.907 59.8744 155.882 59.9176 155.854 59.9579L155.781 60.0532L155.585 60.2101Z" fill="#2F80ED"/>
<path d="M160.669 47.9226V47.7096V47.5919C160.669 47.547 160.669 47.5022 160.641 47.4461C160.621 47.3254 160.589 47.2071 160.546 47.093C160.546 47.0313 160.501 46.9584 160.473 46.8912L160.361 46.6669C160.324 46.5857 160.279 46.5086 160.226 46.4371C160.178 46.353 160.123 46.2724 160.063 46.1961C159.784 45.8213 159.456 45.4857 159.088 45.1983C158.069 44.4154 156.934 43.7952 155.725 43.3596C154.136 42.7589 152.496 42.303 150.825 41.9974C148.791 41.6156 146.732 41.3796 144.665 41.2911C142.304 41.1761 139.938 41.2267 137.585 41.4425C136.346 41.5602 135.079 41.734 133.795 41.975C132.484 42.2115 131.19 42.5355 129.922 42.9448C128.604 43.344 127.342 43.9091 126.166 44.6265C125.567 44.994 125.028 45.4515 124.569 45.983C124.341 46.2526 124.152 46.5526 124.008 46.8743C123.869 47.2011 123.793 47.551 123.784 47.9058C123.795 48.2598 123.869 48.6091 124.002 48.9372C124.149 49.2578 124.337 49.5576 124.563 49.8285C125.026 50.3604 125.566 50.8196 126.166 51.1907C127.343 51.9048 128.605 52.4697 129.922 52.8724C131.192 53.2764 132.485 53.6003 133.795 53.8422C135.079 54.0832 136.346 54.2514 137.585 54.3691C139.938 54.5893 142.304 54.6418 144.665 54.526C146.733 54.4434 148.793 54.2186 150.831 53.8534C152.502 53.5478 154.142 53.0919 155.73 52.4912C156.938 52.0511 158.071 51.4312 159.094 50.6525C159.461 50.3636 159.789 50.0282 160.069 49.6547C160.129 49.5765 160.183 49.4941 160.232 49.4081C160.285 49.3366 160.33 49.2595 160.366 49.1783L160.478 48.9596C160.506 48.8868 160.529 48.8195 160.551 48.7522C160.596 48.6383 160.628 48.5199 160.646 48.3991C160.646 48.3486 160.646 48.3038 160.674 48.2589V48.1412V47.9226C160.674 47.9226 160.674 47.9955 160.674 48.1412V48.2589C160.674 48.3038 160.674 48.3486 160.674 48.4047C160.657 48.5253 160.627 48.6436 160.585 48.7578C160.585 48.8251 160.54 48.8924 160.512 48.9652L160.405 49.1895C160.366 49.2708 160.321 49.3494 160.271 49.4249C160.221 49.5082 160.167 49.5887 160.108 49.666C159.83 50.0444 159.502 50.3837 159.133 50.675C158.115 51.4643 156.98 52.0903 155.77 52.5304C154.18 53.1378 152.538 53.5994 150.865 53.9094C148.829 54.2925 146.768 54.5323 144.698 54.6269C142.336 54.7467 139.968 54.6979 137.613 54.4812C136.368 54.3635 135.096 54.1953 133.812 53.9543C132.498 53.7118 131.201 53.3879 129.928 52.9845C128.604 52.5842 127.337 52.0192 126.155 51.3028C125.548 50.93 125.002 50.4669 124.535 49.9294C124.308 49.6516 124.119 49.3442 123.974 49.0157C123.823 48.681 123.745 48.3179 123.745 47.9506C123.745 47.5833 123.823 47.2202 123.974 46.8856C124.121 46.5581 124.31 46.251 124.535 45.9718C125.007 45.435 125.557 44.972 126.166 44.5985C127.351 43.883 128.62 43.3181 129.944 42.9168C131.215 42.5081 132.51 42.1841 133.823 41.947C135.113 41.7059 136.38 41.5378 137.624 41.4201C139.964 41.1925 142.316 41.1306 144.665 41.2351C146.735 41.3287 148.795 41.5703 150.831 41.9582C152.504 42.2654 154.146 42.7251 155.736 43.3316C156.947 43.7717 158.081 44.3977 159.099 45.187C159.467 45.4797 159.795 45.8189 160.075 46.1961C160.135 46.2743 160.189 46.3567 160.237 46.4427C160.288 46.5174 160.333 46.5962 160.372 46.6781L160.478 46.8968C160.506 46.9696 160.529 47.0425 160.551 47.1042C160.594 47.2203 160.624 47.3405 160.641 47.4629C160.641 47.5134 160.641 47.5638 160.641 47.6031V47.7264C160.669 47.8497 160.669 47.9226 160.669 47.9226Z" fill="#2F80ED"/>
<path d="M153.931 32.636L153.746 32.5183L153.645 32.451C153.604 32.4272 153.561 32.4066 153.516 32.3894C153.409 32.331 153.296 32.284 153.18 32.2492C153.112 32.2492 153.045 32.1988 152.972 32.182L152.731 32.1315C152.644 32.1125 152.556 32.0994 152.468 32.0923C152.371 32.0865 152.273 32.0865 152.176 32.0923C151.708 32.0863 151.241 32.1391 150.786 32.2492C149.546 32.5786 148.362 33.0946 147.277 33.7796C145.829 34.6657 144.465 35.6827 143.202 36.8178C141.661 38.1831 140.219 39.6554 138.885 41.2239C137.349 43.0181 135.942 44.9195 134.676 46.9136C134.014 47.9618 133.364 49.083 132.77 50.2041C132.153 51.3857 131.616 52.6066 131.161 53.859C130.679 55.1508 130.357 56.4968 130.202 57.867C130.127 58.5666 130.159 59.2736 130.298 59.9635C130.374 60.309 130.497 60.6426 130.662 60.9557C130.835 61.2649 131.066 61.5387 131.34 61.7629C131.626 61.9706 131.947 62.1245 132.288 62.217C132.63 62.3001 132.983 62.3359 133.336 62.3235C134.039 62.2843 134.733 62.1388 135.393 61.8919C136.683 61.4026 137.907 60.7549 139.037 59.9635C140.136 59.2106 141.184 58.3867 142.176 57.497C143.151 56.6282 144.065 55.7313 144.917 54.8231C146.53 53.0969 148.019 51.2593 149.374 49.324C150.561 47.6431 151.629 45.8804 152.569 44.0491C153.352 42.5428 153.998 40.9687 154.497 39.346C154.889 38.1228 155.092 36.8467 155.097 35.5622C155.095 35.096 155.031 34.6322 154.906 34.1832C154.906 34.0823 154.845 33.9926 154.817 33.9029C154.789 33.8132 154.755 33.7347 154.716 33.6562L154.609 33.4376C154.57 33.3704 154.525 33.3087 154.491 33.2526C154.428 33.1474 154.353 33.0496 154.267 32.9611L154.178 32.849L154.088 32.7706L153.931 32.6248L154.093 32.7649L154.183 32.8434C154.218 32.8764 154.25 32.912 154.278 32.9499C154.363 33.0392 154.438 33.1369 154.503 33.2414C154.542 33.3031 154.587 33.3591 154.626 33.4264L154.733 33.6506C154.776 33.7293 154.811 33.8119 154.839 33.8973C154.867 33.987 154.906 34.0767 154.929 34.1776C155.058 34.6279 155.126 35.0936 155.131 35.5622C155.133 36.8501 154.934 38.1304 154.542 39.3572C154.044 40.9844 153.403 42.5639 152.625 44.0771C151.685 45.9122 150.618 47.6786 149.43 49.3633C148.078 51.3046 146.589 53.1462 144.973 54.8736C144.121 55.7873 143.207 56.6898 142.226 57.5587C141.233 58.4498 140.182 59.2756 139.082 60.0308C137.947 60.8281 136.718 61.4798 135.421 61.9703C134.754 62.2197 134.053 62.3671 133.341 62.4076C132.979 62.4197 132.618 62.3839 132.265 62.3011C131.914 62.2021 131.584 62.0407 131.29 61.8246C131.006 61.5942 130.769 61.3128 130.589 60.995C130.419 60.6749 130.293 60.3337 130.213 59.9803C130.077 59.2825 130.047 58.5682 130.124 57.8614C130.275 56.4829 130.599 55.1289 131.088 53.8309C131.543 52.5768 132.081 51.354 132.697 50.1705C133.297 49.0045 133.941 47.8946 134.608 46.8407C135.882 44.8475 137.295 42.9462 138.835 41.151C140.171 39.5828 141.617 38.1122 143.162 36.7506C144.432 35.6168 145.802 34.5999 147.255 33.7123C148.346 33.0303 149.535 32.5198 150.781 32.1988C151.237 32.0859 151.706 32.0331 152.176 32.0418C152.277 32.0418 152.373 32.0418 152.468 32.0418C152.558 32.0486 152.648 32.0617 152.737 32.0811L152.978 32.1315L153.185 32.2044C153.302 32.2409 153.415 32.2897 153.522 32.3501C153.566 32.3674 153.609 32.388 153.651 32.4118L153.752 32.4847L153.931 32.636Z" fill="#2F80ED"/>
<path d="M123.559 55.5407C123.655 55.6365 123.719 55.7583 123.746 55.8909C123.772 56.0234 123.758 56.1607 123.706 56.2855C123.654 56.4102 123.566 56.5168 123.454 56.5918C123.342 56.6668 123.21 56.7068 123.075 56.7068C122.939 56.7068 122.807 56.6668 122.695 56.5918C122.583 56.5168 122.495 56.4102 122.443 56.2855C122.391 56.1607 122.377 56.0234 122.403 55.8909C122.43 55.7583 122.494 55.6365 122.59 55.5407C122.653 55.4768 122.729 55.4261 122.812 55.3915C122.895 55.3569 122.984 55.3391 123.075 55.3391C123.165 55.3391 123.254 55.3569 123.337 55.3915C123.42 55.4261 123.496 55.4768 123.559 55.5407Z" fill="#2F80ED"/>
<path d="M162.233 34.3009C162.234 34.4375 162.194 34.5714 162.119 34.6855C162.044 34.7996 161.937 34.8889 161.811 34.9419C161.685 34.995 161.546 35.0094 161.412 34.9834C161.278 34.9575 161.155 34.8923 161.058 34.7961C160.961 34.6998 160.894 34.577 160.867 34.4431C160.84 34.3092 160.854 34.1703 160.906 34.044C160.958 33.9177 161.046 33.8096 161.16 33.7336C161.273 33.6576 161.407 33.617 161.543 33.617C161.634 33.6163 161.723 33.6334 161.807 33.6675C161.89 33.7015 161.966 33.7518 162.03 33.8153C162.095 33.8789 162.145 33.9546 162.18 34.0379C162.215 34.1212 162.233 34.2106 162.233 34.3009Z" fill="#2F80ED"/>
<path d="M127.887 57.7941C127.887 57.8285 127.877 57.8621 127.858 57.8907C127.839 57.9193 127.812 57.9415 127.78 57.9547C127.748 57.9678 127.713 57.9713 127.679 57.9646C127.646 57.9579 127.615 57.9413 127.59 57.917C127.566 57.8927 127.55 57.8618 127.543 57.828C127.536 57.7943 127.54 57.7594 127.553 57.7276C127.566 57.6959 127.588 57.6687 127.617 57.6496C127.645 57.6306 127.679 57.6204 127.713 57.6204C127.759 57.6204 127.804 57.6387 127.836 57.6713C127.869 57.7039 127.887 57.748 127.887 57.7941Z" fill="#2F80ED"/>
<path d="M131.604 38.5892C131.604 38.6235 131.593 38.6571 131.574 38.6857C131.555 38.7143 131.528 38.7366 131.496 38.7497C131.465 38.7629 131.43 38.7663 131.396 38.7596C131.362 38.7529 131.331 38.7364 131.307 38.7121C131.283 38.6878 131.266 38.6568 131.259 38.6231C131.253 38.5894 131.256 38.5544 131.269 38.5227C131.282 38.4909 131.305 38.4638 131.333 38.4447C131.362 38.4256 131.396 38.4154 131.43 38.4154C131.476 38.4154 131.52 38.4337 131.553 38.4663C131.585 38.4989 131.604 38.5431 131.604 38.5892Z" fill="#2F80ED"/>
<path d="M158.785 47.9226C158.785 47.9687 158.767 48.0129 158.734 48.0455C158.702 48.0781 158.658 48.0964 158.612 48.0964C158.565 48.0964 158.521 48.0781 158.489 48.0455C158.456 48.0129 158.438 47.9687 158.438 47.9226C158.438 47.8765 158.456 47.8323 158.489 47.7997C158.521 47.7671 158.565 47.7488 158.612 47.7488C158.658 47.7488 158.702 47.7671 158.734 47.7997C158.767 47.8323 158.785 47.8765 158.785 47.9226Z" fill="#2F80ED"/>
<path d="M161.207 39.8056C161.207 39.8517 161.189 39.8959 161.156 39.9285C161.123 39.9611 161.079 39.9794 161.033 39.9794C160.987 39.9794 160.943 39.9611 160.91 39.9285C160.878 39.8959 160.859 39.8517 160.859 39.8056C160.859 39.7595 160.878 39.7153 160.91 39.6827C160.943 39.6501 160.987 39.6318 161.033 39.6318C161.079 39.6318 161.123 39.6501 161.156 39.6827C161.189 39.7153 161.207 39.7595 161.207 39.8056Z" fill="#2F80ED"/>
<path d="M149.469 51.7513H147.316V40.0299C147.316 38.7022 146.789 37.429 145.85 36.4902C144.911 35.5514 143.638 35.024 142.31 35.024C140.983 35.024 139.709 35.5514 138.771 36.4902C137.832 37.429 137.304 38.7022 137.304 40.0299V51.7513H135.135V40.0299C135.135 38.1313 135.889 36.3106 137.232 34.9681C138.574 33.6256 140.395 32.8715 142.293 32.8715C144.192 32.8715 146.013 33.6256 147.355 34.9681C148.698 36.3106 149.452 38.1313 149.452 40.0299L149.469 51.7513Z" fill="#2F80ED"/>
<g opacity="0.3">
<path d="M149.469 51.7513H147.316V40.0299C147.316 38.7022 146.789 37.429 145.85 36.4902C144.911 35.5514 143.638 35.024 142.31 35.024C140.983 35.024 139.709 35.5514 138.771 36.4902C137.832 37.429 137.304 38.7022 137.304 40.0299V51.7513H135.135V40.0299C135.135 38.1313 135.889 36.3106 137.232 34.9681C138.574 33.6256 140.395 32.8715 142.293 32.8715C144.192 32.8715 146.013 33.6256 147.355 34.9681C148.698 36.3106 149.452 38.1313 149.452 40.0299L149.469 51.7513Z" fill="#1B1C3A"/>
</g>
<path d="M150.696 46.538H133.924C133.228 46.538 132.663 47.1027 132.663 47.7993V57.654C132.663 58.3506 133.228 58.9153 133.924 58.9153H150.696C151.393 58.9153 151.958 58.3506 151.958 57.654V47.7993C151.958 47.1027 151.393 46.538 150.696 46.538Z" fill="#2F80ED"/>
<g opacity="0.3">
<path d="M143.925 51.1178C143.927 50.8168 143.845 50.5212 143.689 50.2642C143.532 50.0073 143.306 49.7993 143.037 49.6638C142.769 49.5282 142.467 49.4705 142.168 49.4972C141.868 49.5238 141.581 49.6338 141.341 49.8146C141.1 49.9954 140.915 50.2399 140.806 50.5204C140.697 50.801 140.668 51.1064 140.724 51.4023C140.779 51.6982 140.916 51.9727 141.119 52.1948C141.322 52.4169 141.583 52.5778 141.873 52.6593V55.0698H142.748V52.6593C143.085 52.5663 143.383 52.3652 143.596 52.0868C143.808 51.8084 143.924 51.4681 143.925 51.1178Z" fill="#1B1C3A"/>
</g>
<path d="M133.694 57.7437C133.65 57.7437 133.61 55.6808 133.61 53.1358C133.61 50.5909 133.65 48.5224 133.694 48.5224C133.739 48.5224 133.773 50.5853 133.773 53.1358C133.773 55.6864 133.734 57.7437 133.694 57.7437Z" fill="#FAFAFA"/>
<path d="M141.049 53.1807C141.049 53.1807 140.971 53.1807 140.858 53.0742C140.7 52.9559 140.56 52.8142 140.444 52.6538C140.239 52.3895 140.097 52.0829 140.026 51.7565C139.956 51.43 139.959 51.092 140.036 50.7669C140.113 50.4419 140.261 50.1381 140.47 49.8778C140.68 49.6175 140.944 49.4072 141.245 49.2624C141.421 49.1682 141.61 49.1021 141.806 49.0662C141.878 49.0526 141.952 49.0526 142.024 49.0662C141.777 49.1502 141.535 49.2514 141.301 49.3689C141.028 49.5198 140.789 49.7263 140.599 49.9751C140.41 50.2238 140.275 50.5094 140.203 50.8134C140.131 51.1174 140.123 51.4332 140.18 51.7405C140.236 52.0478 140.357 52.3397 140.533 52.5977C140.689 52.8056 140.862 53.0005 141.049 53.1807Z" fill="#FAFAFA"/>
<path d="M170.955 69.5267H111.552C108.667 69.5267 106.328 71.8658 106.328 74.7512V75.3902C106.328 78.2756 108.667 80.6147 111.552 80.6147H170.955C173.84 80.6147 176.18 78.2756 176.18 75.3902V74.7512C176.18 71.8658 173.84 69.5267 170.955 69.5267Z" fill="#F5F5F5"/>
<path d="M171.465 84.7292H112.062C109.177 84.7292 106.838 87.0683 106.838 89.9537V90.5928C106.838 93.4781 109.177 95.8172 112.062 95.8172H171.465C174.351 95.8172 176.69 93.4781 176.69 90.5928V89.9537C176.69 87.0683 174.351 84.7292 171.465 84.7292Z" fill="#F5F5F5"/>
<path d="M117.365 74.981V73.3778H118.032V74.9586C118.032 75.5192 118.268 75.7266 118.671 75.7266C119.075 75.7266 119.31 75.5024 119.31 74.9586V73.3778H119.966V74.981C119.966 75.3259 119.829 75.6567 119.585 75.9006C119.341 76.1445 119.011 76.2815 118.666 76.2815C118.321 76.2815 117.99 76.1445 117.746 75.9006C117.502 75.6567 117.365 75.3259 117.365 74.981Z" fill="#263238"/>
<path d="M120.364 76.0405L120.572 75.5808C120.804 75.7192 121.069 75.7927 121.34 75.7939C121.637 75.7939 121.743 75.7154 121.743 75.5921C121.743 75.2333 120.415 75.5921 120.415 74.7232C120.415 74.3028 120.79 74.0057 121.435 74.0057C121.729 74.0009 122.02 74.0683 122.281 74.2019L122.068 74.6559C121.876 74.546 121.657 74.4898 121.435 74.4934C121.149 74.4934 121.026 74.583 121.026 74.6952C121.026 75.0707 122.354 74.6952 122.354 75.5752C122.354 75.9844 121.979 76.2759 121.317 76.2759C120.984 76.2833 120.655 76.2021 120.364 76.0405Z" fill="#263238"/>
<path d="M124.899 75.323H123.217C123.252 75.4608 123.335 75.5816 123.451 75.6629C123.568 75.7443 123.71 75.7809 123.851 75.7658C123.954 75.7704 124.057 75.7539 124.153 75.7172C124.25 75.6806 124.337 75.6246 124.411 75.5528L124.753 75.9228C124.636 76.0437 124.495 76.1378 124.338 76.1988C124.181 76.2597 124.013 76.2861 123.845 76.2759C123.687 76.2959 123.526 76.2818 123.373 76.2345C123.22 76.1871 123.08 76.1077 122.96 76.0016C122.841 75.8954 122.745 75.7649 122.681 75.6189C122.616 75.4728 122.583 75.3146 122.584 75.1548C122.584 75.0028 122.615 74.8522 122.674 74.7124C122.734 74.5726 122.822 74.4464 122.932 74.3416C123.042 74.2367 123.172 74.1553 123.315 74.1024C123.457 74.0495 123.609 74.0261 123.761 74.0337C123.911 74.0299 124.06 74.0562 124.199 74.1109C124.338 74.1655 124.465 74.2475 124.572 74.352C124.679 74.4565 124.764 74.5813 124.822 74.7192C124.881 74.8571 124.91 75.0052 124.91 75.1548C124.91 75.1997 124.899 75.2669 124.899 75.323ZM123.217 74.9474H124.299C124.267 74.8287 124.197 74.7238 124.099 74.6491C124.001 74.5744 123.881 74.5339 123.758 74.5339C123.635 74.5339 123.516 74.5744 123.418 74.6491C123.32 74.7238 123.25 74.8287 123.217 74.9474Z" fill="#263238"/>
<path d="M126.727 74.0057V74.5999H126.581C126.502 74.5995 126.425 74.6156 126.353 74.6472C126.281 74.6788 126.216 74.7252 126.163 74.7834C126.111 74.8415 126.07 74.9101 126.046 74.9847C126.021 75.0593 126.013 75.1383 126.02 75.2165V76.2535H125.381V74.0505H125.992V74.3084C126.082 74.2039 126.196 74.122 126.323 74.0695C126.451 74.0169 126.589 73.995 126.727 74.0057Z" fill="#263238"/>
<path d="M129.339 74.981V76.2423H128.7V75.0819C128.7 74.7232 128.537 74.5606 128.251 74.5606C127.966 74.5606 127.724 74.7512 127.724 75.1548V76.2423H127.085V74.0393H127.696V74.3084C127.791 74.212 127.905 74.1363 128.03 74.0861C128.156 74.0359 128.29 74.0123 128.425 74.0169C128.552 74.0086 128.679 74.0282 128.797 74.0745C128.915 74.1207 129.021 74.1924 129.108 74.2845C129.196 74.3765 129.261 74.4867 129.301 74.607C129.341 74.7274 129.354 74.8551 129.339 74.981Z" fill="#263238"/>
<path d="M131.867 74.9866V76.2423H131.267V75.99C131.193 76.0973 131.092 76.1825 130.973 76.2368C130.855 76.291 130.724 76.3123 130.595 76.2984C130.079 76.2984 129.771 76.0125 129.771 75.6313C129.771 75.2501 130.045 74.9698 130.718 74.9698H131.211C131.211 74.7007 131.049 74.5382 130.701 74.5382C130.473 74.5374 130.251 74.6101 130.068 74.7456L129.838 74.2971C130.121 74.1138 130.453 74.0201 130.791 74.0281C131.475 74.0057 131.867 74.3084 131.867 74.9866ZM131.228 75.5472V75.323H130.791C130.488 75.323 130.398 75.4351 130.398 75.5808C130.398 75.7266 130.533 75.8499 130.757 75.8499C130.855 75.8528 130.951 75.8253 131.032 75.771C131.114 75.7168 131.176 75.6386 131.211 75.5472H131.228Z" fill="#263238"/>
<path d="M136.166 74.981V76.2423H135.527V75.082C135.527 74.7232 135.37 74.5606 135.113 74.5606C134.855 74.5606 134.625 74.7456 134.625 75.1212V76.2423H134.014V75.082C134.014 74.7232 133.863 74.5606 133.593 74.5606C133.324 74.5606 133.111 74.7456 133.111 75.1212V76.2423H132.444V74.0393H133.055V74.3084C133.142 74.2124 133.249 74.1366 133.368 74.0862C133.487 74.0358 133.616 74.0122 133.745 74.0169C133.887 74.0103 134.029 74.0404 134.157 74.1042C134.284 74.168 134.393 74.2633 134.474 74.3812C134.569 74.2627 134.69 74.168 134.828 74.1047C134.967 74.0415 135.118 74.0114 135.27 74.0169C135.395 74.0091 135.521 74.0293 135.638 74.076C135.755 74.1227 135.86 74.1948 135.946 74.287C136.032 74.3792 136.096 74.4892 136.134 74.6093C136.172 74.7293 136.183 74.8562 136.166 74.981Z" fill="#263238"/>
<path d="M138.913 75.323H137.232C137.26 75.4629 137.341 75.5866 137.458 75.6689C137.574 75.7512 137.718 75.7859 137.859 75.7658C137.962 75.7701 138.065 75.7534 138.162 75.7168C138.258 75.6801 138.346 75.6244 138.42 75.5528L138.756 75.9228C138.64 76.0443 138.498 76.1388 138.341 76.1998C138.184 76.2608 138.016 76.2868 137.848 76.2759C137.69 76.2951 137.53 76.2803 137.378 76.2326C137.226 76.1848 137.086 76.1053 136.967 75.9992C136.848 75.8931 136.753 75.763 136.689 75.6174C136.624 75.4718 136.591 75.3141 136.593 75.1548C136.592 75.0028 136.623 74.8522 136.683 74.7124C136.743 74.5726 136.83 74.4464 136.94 74.3416C137.051 74.2367 137.181 74.1553 137.323 74.1024C137.466 74.0495 137.618 74.0261 137.77 74.0337C138.067 74.0337 138.352 74.1518 138.563 74.3621C138.773 74.5723 138.891 74.8575 138.891 75.1548C138.925 75.1997 138.919 75.2669 138.913 75.323ZM137.232 74.9474H138.319C138.301 74.8146 138.233 74.6938 138.129 74.6094C138.025 74.5251 137.892 74.4836 137.759 74.4934C137.631 74.4911 137.507 74.5362 137.411 74.6201C137.314 74.704 137.252 74.8206 137.237 74.9474H137.232Z" fill="#263238"/>
<path d="M143.14 75.1212C143.14 75.8555 142.804 76.2759 142.299 76.2759C142.18 76.2839 142.061 76.2533 141.96 76.1887C141.859 76.1242 141.781 76.029 141.739 75.9172C141.664 76.0338 141.56 76.1285 141.437 76.1915C141.314 76.2546 141.176 76.2837 141.038 76.2759C140.781 76.2492 140.544 76.1285 140.371 75.9369C140.199 75.7454 140.103 75.4967 140.103 75.2389C140.103 74.9811 140.199 74.7324 140.371 74.5408C140.544 74.3493 140.781 74.2285 141.038 74.2018C141.157 74.1963 141.275 74.2182 141.384 74.2659C141.493 74.3135 141.589 74.3856 141.666 74.4765V74.2355H142.226V75.5584C142.226 75.7546 142.31 75.8219 142.422 75.8219C142.535 75.8219 142.725 75.6033 142.725 75.1324C142.728 74.9368 142.689 74.7428 142.611 74.5632C142.534 74.3835 142.42 74.2221 142.276 74.0894C142.132 73.9567 141.962 73.8558 141.777 73.7931C141.592 73.7303 141.395 73.7073 141.2 73.7254C140.806 73.7254 140.429 73.8819 140.15 74.1604C139.871 74.439 139.715 74.8169 139.715 75.2109C139.715 75.6048 139.871 75.9827 140.15 76.2613C140.429 76.5398 140.806 76.6963 141.2 76.6963C141.479 76.696 141.755 76.6348 142.008 76.517L142.137 76.8925C141.843 77.0268 141.523 77.0938 141.2 77.0887C140.946 77.1027 140.691 77.0645 140.451 76.9766C140.211 76.8887 139.992 76.7528 139.807 76.5773C139.621 76.4018 139.474 76.1904 139.373 75.9559C139.272 75.7215 139.22 75.4689 139.22 75.2137C139.22 74.9584 139.272 74.7058 139.373 74.4714C139.474 74.2369 139.621 74.0255 139.807 73.85C139.992 73.6745 140.211 73.5387 140.451 73.4507C140.691 73.3628 140.946 73.3246 141.2 73.3386C141.447 73.3185 141.695 73.3496 141.929 73.43C142.163 73.5104 142.378 73.6383 142.56 73.8057C142.742 73.9731 142.888 74.1764 142.988 74.4028C143.087 74.6292 143.139 74.8738 143.14 75.1212ZM141.677 75.2389C141.685 75.1671 141.677 75.0945 141.655 75.0258C141.633 74.9572 141.596 74.8942 141.547 74.841C141.498 74.7879 141.438 74.7459 141.372 74.7178C141.305 74.6897 141.233 74.6763 141.161 74.6783C141.013 74.6783 140.87 74.7374 140.765 74.8425C140.66 74.9476 140.601 75.0902 140.601 75.2389C140.601 75.3876 140.66 75.5301 140.765 75.6353C140.87 75.7404 141.013 75.7995 141.161 75.7995C141.233 75.8015 141.305 75.788 141.372 75.76C141.438 75.7319 141.498 75.6899 141.547 75.6367C141.596 75.5836 141.633 75.5206 141.655 75.4519C141.677 75.3833 141.685 75.3106 141.677 75.2389Z" fill="#263238"/>
<path d="M147.316 74.981V76.2423H146.677V75.082C146.677 74.7232 146.52 74.5606 146.262 74.5606C146.004 74.5606 145.775 74.7456 145.775 75.1212V76.2423H145.136V75.082C145.136 74.7232 144.984 74.5606 144.715 74.5606C144.446 74.5606 144.233 74.7456 144.233 75.1212V76.2423H143.594V74.0393H144.205V74.3084C144.292 74.2124 144.398 74.1366 144.517 74.0862C144.637 74.0358 144.765 74.0122 144.895 74.0169C145.037 74.0103 145.179 74.0404 145.306 74.1042C145.434 74.168 145.543 74.2634 145.623 74.3812C145.717 74.2631 145.838 74.1687 145.975 74.1054C146.112 74.0422 146.263 74.0118 146.414 74.0169C146.54 74.0083 146.666 74.0278 146.784 74.0741C146.902 74.1204 147.007 74.1924 147.094 74.2847C147.18 74.377 147.245 74.4874 147.283 74.6078C147.322 74.7283 147.333 74.8558 147.316 74.981Z" fill="#263238"/>
<path d="M149.839 74.9866V76.2423H149.245V75.99C149.171 76.0973 149.069 76.1825 148.951 76.2368C148.832 76.291 148.701 76.3123 148.572 76.2984C148.056 76.2984 147.748 76.0125 147.748 75.6313C147.748 75.2501 148.022 74.9698 148.695 74.9698H149.2C149.2 74.7007 149.037 74.5382 148.695 74.5382C148.467 74.5353 148.244 74.6083 148.062 74.7456L147.832 74.2971C148.114 74.1149 148.444 74.0212 148.779 74.0281C149.452 74.0057 149.839 74.3084 149.839 74.9866ZM149.2 75.5472V75.323H148.762C148.465 75.323 148.37 75.4351 148.37 75.5808C148.37 75.7266 148.505 75.8499 148.729 75.8499C148.829 75.8565 148.929 75.8306 149.014 75.7761C149.099 75.7216 149.164 75.6414 149.2 75.5472Z" fill="#263238"/>
<path d="M150.343 73.3778C150.344 73.3275 150.355 73.2778 150.376 73.2319C150.396 73.186 150.426 73.145 150.464 73.1112C150.501 73.0775 150.545 73.0519 150.593 73.0361C150.641 73.0202 150.691 73.0144 150.741 73.0191C150.81 73.0266 150.875 73.0539 150.929 73.0977C150.982 73.1414 151.022 73.1997 151.043 73.2656C151.065 73.3314 151.066 73.402 151.048 73.4688C151.031 73.5356 150.994 73.5958 150.942 73.6422C150.891 73.6885 150.827 73.719 150.759 73.7299C150.69 73.7409 150.62 73.7318 150.557 73.7039C150.494 73.676 150.44 73.6303 150.402 73.5725C150.364 73.5146 150.344 73.447 150.343 73.3778ZM150.422 74.0393H151.055V76.2423H150.422V74.0393Z" fill="#263238"/>
<path d="M151.655 73.1873H152.294V76.2255H151.655V73.1873Z" fill="#263238"/>
<path d="M152.731 75.8779C152.731 75.7724 152.773 75.6711 152.848 75.5965C152.922 75.5219 153.024 75.4799 153.129 75.4799C153.235 75.4799 153.336 75.5219 153.411 75.5965C153.485 75.6711 153.527 75.7724 153.527 75.8779C153.527 75.9835 153.485 76.0847 153.411 76.1594C153.336 76.234 153.235 76.2759 153.129 76.2759C153.024 76.2759 152.922 76.234 152.848 76.1594C152.773 76.0847 152.731 75.9835 152.731 75.8779Z" fill="#263238"/>
<path d="M153.768 75.1436C153.768 74.987 153.8 74.8319 153.863 74.6884C153.925 74.545 154.018 74.4163 154.133 74.3107C154.249 74.205 154.386 74.1248 154.534 74.0752C154.683 74.0255 154.84 74.0076 154.996 74.0225C155.198 74.0054 155.4 74.0498 155.576 74.1499C155.752 74.2499 155.894 74.4009 155.983 74.583L155.489 74.8465C155.432 74.763 155.355 74.6955 155.265 74.6505C155.174 74.6054 155.074 74.5845 154.973 74.5895C154.872 74.5945 154.774 74.6254 154.689 74.6792C154.603 74.733 154.533 74.8079 154.485 74.8966C154.437 74.9854 154.412 75.085 154.414 75.186C154.415 75.2869 154.443 75.3858 154.494 75.4731C154.544 75.5604 154.617 75.6332 154.704 75.6845C154.791 75.7357 154.889 75.7637 154.99 75.7658C155.093 75.766 155.194 75.7379 155.282 75.6845C155.37 75.6311 155.442 75.5545 155.489 75.4631L155.983 75.7322C155.893 75.9133 155.751 76.0634 155.575 76.1633C155.399 76.2632 155.198 76.3082 154.996 76.2927C154.838 76.3079 154.678 76.2892 154.527 76.238C154.377 76.1867 154.239 76.1039 154.123 75.9952C154.007 75.8865 153.915 75.7544 153.854 75.6076C153.793 75.4607 153.764 75.3026 153.768 75.1436Z" fill="#263238"/>
<path d="M156.162 75.1436C156.144 74.9011 156.199 74.6588 156.321 74.4482C156.443 74.2377 156.625 74.0686 156.844 73.9631C157.063 73.8575 157.309 73.8204 157.549 73.8565C157.79 73.8926 158.014 74.0002 158.192 74.1654C158.371 74.3307 158.495 74.5457 158.55 74.7827C158.604 75.0197 158.586 75.2676 158.497 75.4941C158.409 75.7206 158.254 75.9153 158.054 76.0527C157.853 76.1902 157.616 76.264 157.373 76.2647C157.218 76.2771 157.063 76.2573 156.916 76.2066C156.77 76.1558 156.635 76.0752 156.521 75.9698C156.408 75.8644 156.317 75.7366 156.255 75.5944C156.193 75.4522 156.162 75.2987 156.162 75.1436ZM157.933 75.1436C157.924 75.0354 157.883 74.9324 157.815 74.8471C157.748 74.7618 157.658 74.6978 157.555 74.663C157.452 74.6282 157.341 74.6241 157.236 74.6511C157.131 74.6781 157.035 74.735 156.962 74.8151C156.889 74.8951 156.84 74.9948 156.822 75.1019C156.804 75.2091 156.818 75.3191 156.861 75.4186C156.905 75.5181 156.976 75.6029 157.067 75.6625C157.158 75.7222 157.264 75.7542 157.373 75.7546C157.451 75.7549 157.528 75.7389 157.6 75.7077C157.671 75.6764 157.735 75.6305 157.788 75.573C157.841 75.5155 157.881 75.4476 157.906 75.3736C157.931 75.2997 157.94 75.2213 157.933 75.1436Z" fill="#263238"/>
<path d="M162.732 74.981V76.2423H162.093V75.082C162.093 74.7232 161.93 74.5606 161.672 74.5606C161.414 74.5606 161.185 74.7456 161.185 75.1212V76.2423H160.545V75.082C160.545 74.7232 160.394 74.5606 160.131 74.5606C159.867 74.5606 159.649 74.7456 159.649 75.1212V76.2423H159.01V74.0393H159.615V74.3084C159.703 74.2123 159.81 74.1364 159.93 74.0861C160.05 74.0357 160.18 74.0121 160.31 74.0169C160.452 74.0097 160.593 74.0395 160.72 74.1034C160.847 74.1673 160.955 74.263 161.033 74.3812C161.129 74.2634 161.25 74.1691 161.389 74.1059C161.527 74.0427 161.677 74.0123 161.829 74.0169C161.955 74.0083 162.082 74.0278 162.199 74.0741C162.317 74.1204 162.423 74.1924 162.509 74.2847C162.596 74.377 162.661 74.4874 162.699 74.6078C162.737 74.7283 162.749 74.8558 162.732 74.981Z" fill="#263238"/>
<path d="M125.925 90.3349L126.962 90.8954L126.497 91.6746L125.449 91.058V92.2128H124.552V91.0468L123.537 91.6858L123.077 90.9067L124.12 90.3461L123.077 89.7855L123.537 89.0064L124.585 89.6342V88.4738H125.482V89.6342L126.53 89.0064L126.996 89.7855L125.925 90.3349Z" fill="#263238"/>
<path d="M130.247 90.3349L131.284 90.8954L130.819 91.6858L129.771 91.0692V92.224H128.879V91.058L127.848 91.6858L127.388 90.9067L128.425 90.3461L127.388 89.7855L127.848 89.0064L128.896 89.6342V88.4738H129.787V89.6342L130.836 89.0064L131.301 89.7855L130.247 90.3349Z" fill="#263238"/>
<path d="M134.574 90.3349L135.612 90.8954L135.135 91.6858L134.092 91.0692V92.224H133.195V91.058L132.175 91.6858L131.721 90.9067L132.758 90.3461L131.721 89.7855L132.175 89.0064L133.223 89.6342V88.4738H134.12V89.6342L135.163 89.0064L135.634 89.7855L134.574 90.3349Z" fill="#263238"/>
<path d="M138.885 90.3349L139.922 90.8954L139.457 91.6746L138.409 91.058V92.2128H137.512V91.0468L136.497 91.6858L136.038 90.9067L137.08 90.3461L136.038 89.7855L136.497 89.0064L137.546 89.6342V88.4738H138.442V89.6342L139.491 89.0064L139.956 89.7855L138.885 90.3349Z" fill="#263238"/>
<path d="M143.207 90.3349L144.244 90.8955L143.779 91.6747L142.731 91.058V92.2128H141.862V91.0468L140.819 91.6859L140.36 90.9067L141.397 90.3461L140.36 89.7856L140.819 89.0064L141.862 89.6118V88.4514H142.753V89.6118L143.801 88.984L144.267 89.7631L143.207 90.3349Z" fill="#263238"/>
<path d="M147.529 90.3349L148.566 90.8954L148.101 91.6746L147.053 91.058V92.2128H146.156V91.0468L145.136 91.6858L144.682 90.9067L145.719 90.3461L144.682 89.7855L145.136 89.0064L146.184 89.6342V88.4738H147.081V89.6342L148.129 89.0064L148.594 89.7855L147.529 90.3349Z" fill="#263238"/>
<path d="M151.845 90.3349L152.883 90.8954L152.417 91.6746L151.369 91.058V92.2128H150.472V91.0468L149.457 91.6858L148.998 90.9067L150.04 90.3461L148.998 89.7855L149.457 89.0064L150.506 89.6342V88.4738H151.391V89.6342L152.44 89.0064L152.905 89.7855L151.845 90.3349Z" fill="#263238"/>
<path d="M156.167 90.3349L157.205 90.8954L156.739 91.6746L155.691 91.058V92.2128H154.8V91.0468L153.779 91.6858L153.32 90.9067L154.357 90.3461L153.32 89.7855L153.779 89.0064L154.828 89.6342V88.4738H155.719V89.6342L156.767 89.0064L157.233 89.7855L156.167 90.3349Z" fill="#263238"/>
<path d="M105.257 59.3694H61.5891C61.2905 59.3694 60.9948 59.4283 60.719 59.5427C60.4432 59.6572 60.1926 59.8249 59.9817 60.0363C59.7709 60.2477 59.6038 60.4987 59.49 60.7747C59.3762 61.0508 59.318 61.3467 59.3188 61.6453V81.5341C59.315 81.8333 59.3712 82.1302 59.4839 82.4073C59.5967 82.6845 59.7638 82.9362 59.9753 83.1478C60.1869 83.3594 60.4387 83.5265 60.7158 83.6392C60.993 83.752 61.2899 83.8081 61.5891 83.8044H79.9083L83.7986 88.799L87.0443 83.8044H105.257C105.555 83.8044 105.85 83.7457 106.126 83.6316C106.401 83.5175 106.652 83.3502 106.862 83.1394C107.073 82.9286 107.24 82.6783 107.354 82.4029C107.469 82.1274 107.527 81.8322 107.527 81.5341V61.6453C107.527 61.0426 107.288 60.4646 106.863 60.038C106.437 59.6113 105.86 59.3709 105.257 59.3694Z" fill="white"/>
<path d="M105.257 59.3694H105.47C105.683 59.3878 105.892 59.4349 106.092 59.5095C106.42 59.6269 106.715 59.8188 106.956 60.0701C107.299 60.4397 107.51 60.9129 107.555 61.4154C107.6 63.5792 107.589 66.7296 107.606 70.7208C107.606 72.7164 107.606 74.9194 107.606 77.3074C107.606 78.507 107.606 79.7459 107.606 81.0352C107.621 81.3647 107.606 81.695 107.561 82.0218C107.492 82.3619 107.351 82.6831 107.146 82.9635C106.936 83.251 106.665 83.4879 106.352 83.6567C106.038 83.8254 105.691 83.9219 105.336 83.9389H87.0163L87.1285 83.8829C86.1082 85.4468 85.0095 87.1453 83.8884 88.8719L83.7819 89.0344L83.6586 88.8831L79.7682 83.8941L79.8804 83.9501H62.2618C61.9423 83.9501 61.6452 83.9501 61.3033 83.9501C60.8058 83.8908 60.3388 83.6791 59.9665 83.3438C59.5941 83.0086 59.3346 82.5664 59.2236 82.0778C59.1677 81.7635 59.147 81.4438 59.1619 81.1249V72.9126C59.1619 70.5246 59.1619 68.1833 59.1619 65.8887V61.6453C59.1621 61.3499 59.2172 61.0572 59.3245 60.782C59.5323 60.235 59.9303 59.7813 60.4456 59.5039C60.703 59.3723 60.9822 59.2887 61.2696 59.2573C61.546 59.2434 61.8229 59.2434 62.0993 59.2573H66.8697H72.9125H83.7539L99.4497 59.3021L103.716 59.3301L99.4497 59.3582L83.7539 59.403H72.9125H62.1441C61.875 59.403 61.5835 59.403 61.3425 59.403C61.0878 59.4322 60.8408 59.5082 60.6138 59.6272C60.1502 59.8647 59.7893 60.2634 59.5991 60.7484C59.503 60.993 59.4535 61.2535 59.4534 61.5163V62.3572C59.4534 63.4783 59.4534 64.5994 59.4534 65.7598V72.7837C59.4534 75.1679 59.4534 77.5971 59.4534 80.071V81.0016C59.4357 81.2996 59.4526 81.5987 59.5039 81.8929C59.6026 82.3223 59.8318 82.7106 60.16 83.0047C60.4882 83.2987 60.8993 83.4841 61.3369 83.5353C61.6228 83.5633 61.9535 83.5353 62.2618 83.5353H79.9757L80.0205 83.5914L83.9108 88.5804H83.681L86.9267 83.5914L86.9659 83.5297H87.0444H105.352C105.675 83.5189 105.99 83.4345 106.275 83.283C106.56 83.1314 106.806 82.9167 106.995 82.6552C107.185 82.4036 107.315 82.1123 107.376 81.8032C107.419 81.4894 107.434 81.1723 107.421 80.8558C107.421 79.5665 107.421 78.3277 107.421 77.1281C107.421 74.7401 107.421 72.537 107.421 70.5414C107.421 66.5614 107.421 63.4111 107.449 61.2417C107.399 60.7728 107.203 60.3314 106.888 59.9804C106.658 59.7233 106.373 59.522 106.053 59.3918C105.79 59.3465 105.522 59.3389 105.257 59.3694Z" fill="#263238"/>
<path d="M75.2444 64.9862V65.7206H74.7679V64.9806L73.9607 63.6577H74.4708L75.0314 64.577L75.5919 63.6577H76.0628L75.2444 64.9862Z" fill="#263238"/>
<path d="M76.0404 64.6835C76.0304 64.4599 76.0875 64.2384 76.2044 64.0475C76.3213 63.8567 76.4927 63.7051 76.6964 63.6125C76.9002 63.5199 77.127 63.4903 77.3477 63.5277C77.5684 63.5651 77.7729 63.6677 77.9347 63.8223C78.0966 63.9769 78.2085 64.1764 78.256 64.3951C78.3035 64.6139 78.2845 64.8418 78.2013 65.0497C78.1181 65.2575 77.9747 65.4356 77.7894 65.5612C77.6041 65.6868 77.3854 65.754 77.1616 65.7542C77.0168 65.7611 76.8721 65.7384 76.7363 65.6877C76.6006 65.6369 76.4765 65.5592 76.3717 65.459C76.2668 65.3589 76.1834 65.2386 76.1265 65.1053C76.0696 64.972 76.0403 64.8285 76.0404 64.6835ZM77.823 64.6835C77.8219 64.5552 77.7829 64.43 77.7107 64.3238C77.6386 64.2176 77.5367 64.1352 77.4178 64.0868C77.2989 64.0384 77.1683 64.0264 77.0425 64.0521C76.9168 64.0778 76.8014 64.1402 76.711 64.2313C76.6207 64.3225 76.5593 64.4384 76.5346 64.5643C76.51 64.6903 76.5232 64.8208 76.5726 64.9393C76.622 65.0578 76.7053 65.159 76.8121 65.2302C76.9189 65.3014 77.0444 65.3394 77.1728 65.3394C77.2593 65.3418 77.3454 65.3264 77.4257 65.2942C77.506 65.262 77.5789 65.2136 77.6398 65.1522C77.7008 65.0907 77.7485 65.0174 77.78 64.9368C77.8115 64.8562 77.8261 64.77 77.823 64.6835Z" fill="#263238"/>
<path d="M78.6584 64.8069V63.6577H79.1405V64.7788C79.1405 65.1712 79.3143 65.3394 79.6002 65.3394C79.8861 65.3394 80.0655 65.1768 80.0655 64.7788V63.6577H80.5419V64.8181C80.5419 65.0679 80.4427 65.3074 80.2661 65.484C80.0895 65.6606 79.85 65.7598 79.6002 65.7598C79.3504 65.7598 79.1109 65.6606 78.9343 65.484C78.7577 65.3074 78.6584 65.0679 78.6584 64.8181V64.8069Z" fill="#263238"/>
<path d="M82.3412 65.7206L81.9432 65.16H81.5004V65.7206H81.0183V63.6577H81.9152C82.4758 63.6577 82.8177 63.9436 82.8177 64.4089C82.8239 64.549 82.7862 64.6875 82.7098 64.8051C82.6334 64.9227 82.5222 65.0134 82.3917 65.0647L82.857 65.7318L82.3412 65.7206ZM81.8928 64.0389H81.5004V64.7788H81.8928C82.1843 64.7788 82.33 64.6387 82.33 64.4145C82.33 64.1903 82.1843 64.0333 81.8816 64.0333L81.8928 64.0389Z" fill="#263238"/>
<path d="M83.9109 64.6835C83.9127 64.4536 83.9852 64.2298 84.1185 64.0425C84.2518 63.8552 84.4394 63.7134 84.656 63.6363C84.8726 63.5592 85.1077 63.5505 85.3294 63.6115C85.551 63.6725 85.7486 63.8002 85.8953 63.9772L85.587 64.2631C85.5235 64.1848 85.4431 64.122 85.3518 64.0793C85.2606 64.0366 85.1608 64.0151 85.06 64.0164C84.8944 64.0317 84.7404 64.1082 84.6283 64.2311C84.5162 64.354 84.4541 64.5144 84.4541 64.6807C84.4541 64.847 84.5162 65.0074 84.6283 65.1303C84.7404 65.2532 84.8944 65.3297 85.06 65.345C85.1604 65.3474 85.26 65.327 85.3513 65.2852C85.4426 65.2435 85.5232 65.1815 85.587 65.1039L85.8953 65.3842C85.7489 65.5609 85.5519 65.6884 85.3307 65.7496C85.1096 65.8107 84.875 65.8026 84.6586 65.7262C84.4423 65.6498 84.2546 65.5088 84.1209 65.3224C83.9872 65.1359 83.9139 64.9129 83.9109 64.6835Z" fill="#263238"/>
<path d="M86.0465 64.6835C86.0365 64.4599 86.0936 64.2384 86.2105 64.0475C86.3274 63.8567 86.4988 63.7051 86.7025 63.6125C86.9063 63.5199 87.1331 63.4903 87.3538 63.5277C87.5745 63.5651 87.779 63.6677 87.9408 63.8223C88.1027 63.9769 88.2146 64.1764 88.2621 64.3951C88.3096 64.6139 88.2906 64.8418 88.2074 65.0497C88.1242 65.2575 87.9808 65.4356 87.7955 65.5612C87.6102 65.6868 87.3915 65.754 87.1677 65.7542C87.0229 65.7611 86.8782 65.7384 86.7424 65.6877C86.6067 65.6369 86.4826 65.5592 86.3778 65.459C86.2729 65.3589 86.1895 65.2386 86.1326 65.1053C86.0757 64.972 86.0464 64.8285 86.0465 64.6835ZM87.8291 64.6835C87.8269 64.5554 87.7869 64.4308 87.7142 64.3254C87.6414 64.2199 87.5391 64.1383 87.4201 64.0908C87.3011 64.0433 87.1707 64.0321 87.0453 64.0584C86.9199 64.0847 86.8051 64.1475 86.7153 64.2389C86.6255 64.3303 86.5646 64.4461 86.5404 64.572C86.5162 64.6978 86.5297 64.828 86.5793 64.9461C86.6288 65.0643 86.7121 65.1652 86.8188 65.2362C86.9255 65.3071 87.0508 65.345 87.1789 65.345C87.2659 65.3474 87.3525 65.3318 87.4332 65.2993C87.5139 65.2668 87.587 65.2179 87.6481 65.1559C87.7091 65.0938 87.7566 65.0198 87.7878 64.9386C87.819 64.8573 87.833 64.7705 87.8291 64.6835Z" fill="#263238"/>
<path d="M88.6812 63.6577H89.6285C89.7738 63.6426 89.9206 63.6581 90.0594 63.7034C90.1982 63.7486 90.3261 63.8225 90.4345 63.9202C90.543 64.018 90.6297 64.1375 90.6891 64.2709C90.7484 64.4043 90.7791 64.5487 90.7791 64.6948C90.7791 64.8408 90.7484 64.9852 90.6891 65.1186C90.6297 65.252 90.543 65.3715 90.4345 65.4692C90.3261 65.567 90.1982 65.6409 90.0594 65.6861C89.9206 65.7314 89.7738 65.7469 89.6285 65.7318H88.6812V63.6577ZM89.6005 65.3394C89.7714 65.3394 89.9354 65.2715 90.0563 65.1506C90.1772 65.0297 90.2451 64.8657 90.2451 64.6948C90.2451 64.5238 90.1772 64.3598 90.0563 64.2389C89.9354 64.118 89.7714 64.0501 89.6005 64.0501H89.1688V65.3394H89.6005Z" fill="#263238"/>
<path d="M92.7453 65.3394V65.7262H91.1365V63.6577H92.7061V64.0389H91.613V64.493H92.5771V64.8685H91.613V65.3394H92.7453Z" fill="#263238"/>
<path d="M100.997 67.9012H65.855C64.7559 67.9012 63.865 68.7921 63.865 69.8912V77.3131C63.865 78.4121 64.7559 79.3031 65.855 79.3031H100.997C102.096 79.3031 102.987 78.4121 102.987 77.3131V69.8912C102.987 68.7921 102.096 67.9012 100.997 67.9012Z" fill="#F5F5F5"/>
<path d="M71.7914 74.3084C71.7924 74.5431 71.7443 74.7754 71.6502 74.9904C71.556 75.2054 71.4179 75.3983 71.2447 75.5567C71.0715 75.7151 70.8671 75.8355 70.6446 75.9101C70.4221 75.9848 70.1864 76.012 69.9528 75.9901C68.5065 75.9901 67.7385 74.9475 67.7385 73.2209C67.7385 71.3486 68.7307 70.3901 70.1938 70.3901C70.6279 70.3712 71.0593 70.4679 71.4439 70.6703L71.2813 70.9955C70.9488 70.8133 70.5726 70.726 70.1938 70.7432C68.9549 70.7432 68.1421 71.556 68.1421 73.1593C68.1404 73.3806 68.1554 73.6017 68.187 73.8207C68.3186 73.4679 68.5617 73.1676 68.8793 72.9653C69.1969 72.763 69.5718 72.6697 69.9472 72.6996C71.0739 72.6604 71.7914 73.305 71.7914 74.3084ZM71.3878 74.3084C71.3878 73.518 70.8272 73.0079 69.8911 73.0079C69.7031 72.9886 69.5131 73.0079 69.3328 73.0645C69.1525 73.1212 68.9857 73.214 68.8424 73.3373C68.6992 73.4605 68.5826 73.6117 68.4998 73.7816C68.417 73.9515 68.3697 74.1365 68.3608 74.3252C68.3608 74.9699 68.9213 75.6201 69.9415 75.6201C70.1267 75.6434 70.3146 75.6267 70.4928 75.5712C70.6709 75.5157 70.8351 75.4226 70.9742 75.2983C71.1134 75.1741 71.2243 75.0214 71.2995 74.8506C71.3747 74.6799 71.4125 74.495 71.4102 74.3084H71.3878Z" fill="#2F80ED"/>
<path d="M79.1404 74.3981H77.9856V75.9284H77.5876V74.3981H74.4429V74.1066L77.4419 70.4069H77.8903L74.9474 74.0393H77.5989V72.694H77.9856V74.0393H79.1404V74.3981Z" fill="#2F80ED"/>
<path d="M85.2729 74.3701C85.2729 75.2894 84.6114 75.9677 83.339 75.9677C82.9812 75.9815 82.6243 75.9225 82.2899 75.7944C81.9556 75.6662 81.6507 75.4716 81.3938 75.2221L81.5956 74.9138C81.8246 75.1397 82.0974 75.3164 82.3972 75.4331C82.697 75.5497 83.0175 75.6038 83.339 75.5921C84.3312 75.5921 84.8637 75.1212 84.8637 74.3701C84.8637 73.6189 84.3592 73.148 83.2549 73.148H82.9073V72.8566L84.5386 70.7656H81.5956V70.3845H85.0599V70.6647L83.3782 72.7893C84.6843 72.8397 85.2729 73.4732 85.2729 74.3701Z" fill="#2F80ED"/>
<path d="M91.9717 70.3845V70.6647L89.6006 75.906H89.1577L91.5065 70.7432H88.4066V71.8027H88.0142V70.3845H91.9717Z" fill="#2F80ED"/>
<path d="M94.7747 73.1873C94.7747 71.4607 95.666 70.3845 96.9328 70.3845C98.1997 70.3845 99.0966 71.4551 99.0966 73.1873C99.0966 74.9194 98.2053 75.9901 96.9328 75.9901C95.6604 75.9901 94.7747 74.869 94.7747 73.1873ZM98.6986 73.1873C98.6986 71.6513 97.9811 70.76 96.9384 70.76C95.8958 70.76 95.1783 71.6513 95.1783 73.1873C95.1783 74.7232 95.8958 75.6145 96.9384 75.6145C97.9811 75.6145 98.6986 74.7008 98.6986 73.1873Z" fill="#2F80ED"/>
<path d="M214.96 217.544C222.298 214.427 230.796 208.3 234.579 200.783C226.437 204.163 219.57 210.029 214.96 217.544Z" fill="#0CC966"/>
<path d="M216.523 205.878C223.861 202.767 232.359 196.64 236.143 189.123C227.999 192.498 221.131 198.363 216.523 205.878Z" fill="#0CC966"/>
<path d="M218.659 194.538C226.003 191.422 234.495 185.295 238.279 177.783C230.136 181.159 223.268 187.023 218.659 194.538Z" fill="#0CC966"/>
<path d="M221.305 182.665C228.228 178.573 235.947 171.286 238.84 163.337C231.147 167.819 225.028 174.57 221.322 182.665" fill="#0CC966"/>
<path d="M224.153 173.579C229.198 166.981 233.901 157.16 233.839 148.65C228.232 155.828 224.863 164.498 224.153 173.579Z" fill="#0CC966"/>
<path d="M222.74 177.901C221.72 168.976 218.256 157.76 212.359 151.066C213.354 160.779 216.94 170.047 222.74 177.901Z" fill="#0CC966"/>
<path d="M220.369 187.66C218.575 178.461 214.035 167.082 207.342 160.63C209.174 170.648 213.675 179.986 220.369 187.66Z" fill="#0CC966"/>
<path d="M217.645 199.561C215.857 190.345 211.305 178.983 204.645 172.53C206.478 182.548 210.978 191.886 217.673 199.561" fill="#0CC966"/>
<path d="M215.459 214.175C213.659 204.976 209.119 193.596 202.431 187.144C204.264 197.162 208.764 206.5 215.459 214.175Z" fill="#0CC966"/>
<path d="M224.495 171.847C224.467 171.889 224.448 171.937 224.439 171.987C224.4 172.093 224.355 172.228 224.299 172.396C224.175 172.783 224.002 173.315 223.788 173.988C223.346 175.373 222.751 177.385 222.051 179.885C221.35 182.385 220.576 185.373 219.78 188.708C218.984 192.044 218.2 195.738 217.46 199.628C216.72 203.518 216.142 207.252 215.655 210.649C215.167 214.046 214.819 217.118 214.567 219.696C214.315 222.275 214.136 224.371 214.046 225.823C214.001 226.53 213.967 227.085 213.939 227.505C213.939 227.684 213.939 227.825 213.939 227.942C213.932 227.991 213.932 228.04 213.939 228.088C213.957 228.041 213.966 227.992 213.967 227.942C213.967 227.83 213.967 227.684 214.012 227.511C214.051 227.107 214.108 226.552 214.175 225.829C214.298 224.388 214.506 222.297 214.786 219.719C215.066 217.14 215.453 214.08 215.935 210.688C216.417 207.297 217.056 203.575 217.762 199.684C218.469 195.794 219.287 192.111 220.055 188.77C220.823 185.429 221.585 182.441 222.264 179.936C222.942 177.43 223.503 175.412 223.912 174.022L224.371 172.413C224.416 172.245 224.45 172.104 224.484 171.992C224.494 171.944 224.497 171.895 224.495 171.847Z" fill="#0CC966"/>
<path d="M211.372 222.398C214.483 215.884 216.748 206.702 215.223 199.566C211.744 206.64 210.406 214.575 211.372 222.398Z" fill="#008442"/>
<path d="M206.209 213.962C209.32 207.442 211.585 198.266 210.055 191.13C206.575 198.203 205.238 206.139 206.209 213.962Z" fill="#008442"/>
<path d="M201.568 205.38C204.679 198.86 206.944 189.684 205.413 182.548C201.933 189.621 200.597 197.557 201.568 205.38Z" fill="#008442"/>
<path d="M196.994 196.125C199.309 189.23 200.469 179.823 198.115 172.945C195.503 180.4 195.113 188.453 196.994 196.125Z" fill="#008442"/>
<path d="M193.994 188.546C193.765 181.208 191.606 172.015 187.049 166.594C187.151 174.436 189.567 182.073 193.994 188.546Z" fill="#008442"/>
<path d="M195.39 192.184C189.992 187.094 181.785 182.032 174.408 181.371C180.178 186.972 187.481 190.735 195.39 192.184Z" fill="#008442"/>
<path d="M199.04 199.908C192.991 195.11 184 190.614 176.23 190.597C182.743 195.892 190.682 199.133 199.04 199.908Z" fill="#008442"/>
<path d="M203.58 209.219C197.532 204.427 188.546 199.925 180.776 199.909C187.288 205.202 195.225 208.443 203.58 209.219Z" fill="#008442"/>
<path d="M209.92 219.937C203.872 215.139 194.88 210.643 187.111 210.621C193.622 215.919 201.562 219.162 209.92 219.937Z" fill="#008442"/>
<path d="M193.311 187.217C193.311 187.217 193.311 187.256 193.344 187.335L193.468 187.682L193.972 189C194.415 190.121 195.093 191.803 195.951 193.809C197.678 197.84 200.239 203.339 203.418 209.247C205.01 212.19 206.607 214.96 208.098 217.443C209.59 219.926 211.008 222.135 212.224 223.962C213.441 225.79 214.466 227.253 215.162 228.251L215.991 229.372L216.21 229.663C216.26 229.73 216.288 229.764 216.294 229.758C216.276 229.72 216.255 229.682 216.232 229.646L216.036 229.338C215.84 229.052 215.582 228.66 215.251 228.166C214.556 227.152 213.57 225.672 212.387 223.833C211.204 221.995 209.808 219.775 208.317 217.291C206.826 214.808 205.251 212.033 203.659 209.09C200.48 203.238 197.919 197.745 196.13 193.709C195.245 191.702 194.544 190.07 194.073 188.938L193.513 187.638L193.361 187.301C193.347 187.272 193.33 187.244 193.311 187.217Z" fill="#0CC966"/>
<path d="M196.562 223.189H227.483V229.147H224.304L221.63 246.144H202.515L199.763 229.147H196.562V223.189Z" fill="#BA6400"/>
<path d="M196.562 229.024C196.562 228.946 203.435 228.878 211.91 228.878C220.386 228.878 227.259 228.946 227.259 229.024C227.259 229.103 220.392 229.164 211.91 229.164C203.429 229.164 196.562 229.103 196.562 229.024Z" fill="#0CC966"/>
<path d="M19.4404 246.155H14.4233L12.5623 223.559H18.4706L19.4404 246.155Z" fill="#263238"/>
<path d="M62.9402 246.155H67.9572L69.8183 223.559H63.91L62.9402 246.155Z" fill="#263238"/>
<path d="M73.2656 226.423L8.66619 227.937L6.70422 186.214C6.65793 185.246 6.80865 184.279 7.14726 183.371C7.48587 182.463 8.0053 181.633 8.67409 180.932C9.34288 180.23 10.1471 179.672 11.038 179.291C11.9289 178.91 12.888 178.713 13.857 178.714H68.8988C69.8812 178.714 70.8531 178.916 71.754 179.307C72.655 179.699 73.4659 180.271 74.1362 180.989C74.8065 181.707 75.3219 182.556 75.6505 183.482C75.979 184.407 76.1137 185.391 76.046 186.371L73.2656 226.423Z" fill="#2F80ED"/>
<path d="M76.5787 186.074H76.3993H75.8668L73.8319 186.107H66.3428C60.0196 186.107 51.286 186.051 41.6443 186.276C31.997 186.595 23.2522 186.539 16.9346 186.444C13.7731 186.393 11.2113 186.332 9.4455 186.276L7.41066 186.208H6.88373C6.82418 186.216 6.76389 186.216 6.70435 186.208H6.88373H7.41066H9.4455L16.9346 186.281C23.2578 186.326 31.9914 186.348 41.6387 186.023C51.286 185.805 60.0196 185.906 66.3428 185.95L73.8319 186.012L75.8668 186.04H76.3993L76.5787 186.074Z" fill="#263238"/>
<path d="M30.2649 179.364C28.8129 179.576 27.4001 180.001 26.0719 180.625C24.7858 181.333 23.6125 182.228 22.5908 183.282C22.7965 182.891 23.0677 182.539 23.3924 182.239C24.8825 180.707 26.8375 179.709 28.9532 179.403C29.3847 179.313 29.8288 179.3 30.2649 179.364Z" fill="#263238"/>
<path d="M56.8357 103.503L64.7284 117.926L76.276 111.457L81.8817 113.312C81.8817 113.312 67.733 128.683 65.4291 129.485C63.1252 130.286 58.764 130.415 56.2751 127.293C54.0328 124.451 47.3958 109.54 47.3958 109.54L56.8357 103.503Z" fill="#8E4842"/>
<path d="M89.3428 94.0851C89.2415 93.9608 89.1099 93.8645 88.9607 93.8056C88.8115 93.7467 88.6497 93.7272 88.4908 93.7488L83.0028 94.4887C82.7643 94.5244 82.5362 94.6109 82.3341 94.7424C82.1319 94.874 81.9605 95.0475 81.8313 95.2511L70.3901 112.825L71.2646 113.312L77.3523 113.122L89.5166 94.3037L89.3428 94.0851Z" fill="#263238"/>
<path d="M85.4467 96.3666C85.4906 96.4362 85.5553 96.4902 85.6316 96.521C85.7078 96.5519 85.7919 96.5579 85.8718 96.5384C85.9517 96.5188 86.0235 96.4747 86.0769 96.4121C86.1303 96.3496 86.1628 96.2718 86.1696 96.1898C86.1764 96.1078 86.1573 96.0258 86.115 95.9552C86.0726 95.8847 86.0092 95.8293 85.9336 95.7968C85.858 95.7643 85.7741 95.7563 85.6938 95.7741C85.6135 95.7919 85.5408 95.8344 85.4859 95.8958C85.4213 95.9549 85.3813 96.0362 85.374 96.1235C85.3667 96.2108 85.3927 96.2977 85.4467 96.3666Z" fill="white"/>
<path d="M89.5164 94.3038C89.1676 94.4015 88.8114 94.4708 88.4514 94.5112L85.5364 94.9652L83.524 95.2567C83.3534 95.272 83.1883 95.3252 83.0408 95.4125C82.8934 95.4998 82.7674 95.619 82.6719 95.7612L82.0217 96.7703C81.1192 98.1549 80.1382 99.674 79.1068 101.255C77.0271 104.439 75.1324 107.314 73.7422 109.389L72.0885 111.866C71.8962 112.174 71.6807 112.466 71.4438 112.741C71.6017 112.41 71.7893 112.095 72.0044 111.799L73.574 109.299C74.9137 107.191 76.7748 104.299 78.8545 101.115C79.8972 99.5282 80.8894 98.0147 81.7919 96.6301C82.0217 96.2882 82.2459 95.9518 82.4589 95.6211C82.5784 95.4494 82.7343 95.3061 82.9155 95.2014C83.0967 95.0968 83.2987 95.0334 83.5072 95.0157L85.5308 94.7578L88.4626 94.4103C88.8105 94.347 89.1629 94.3114 89.5164 94.3038Z" fill="#455A64"/>
<path d="M83.4121 100.576C83.4121 100.576 82.9244 100.492 82.6553 101.832C82.3862 103.172 81.5342 107.017 81.5342 107.017L78.9668 105.655L75.7492 106.076C75.7492 106.076 75.0484 106.72 75.5642 107.073C76.0799 107.427 78.1091 107.785 78.1091 107.785L79.6058 109.944L75.3063 107.869C75.3063 107.869 73.8713 108.245 74.2917 109.119C74.7121 109.994 77.6102 112.735 77.6102 112.735L75.4577 112.573L72.9127 111.014C72.9127 111.014 72.1279 111.053 72.4194 111.72C72.7109 112.388 75.3792 114.809 75.3792 114.809L78.608 116.379C78.608 116.379 80.3738 116.239 80.542 115.717C80.6561 115.307 80.7275 114.886 80.755 114.462C80.755 114.462 81.6911 114.209 81.8761 113.755C81.9791 113.374 82.0001 112.974 81.9378 112.584C81.9378 112.584 83.4065 112.842 83.5914 112.023C83.7199 111.003 83.6782 109.969 83.4681 108.963C83.3224 108.329 84.096 102.471 84.0287 102.297C83.9614 102.124 84.337 100.19 83.4121 100.576Z" fill="#8E4842"/>
<path d="M80.626 115.728C80.3707 115.881 80.0822 115.97 79.7851 115.986C78.3527 116.194 76.895 115.847 75.7098 115.017C75.267 114.697 75.0483 114.456 75.0764 114.406C75.1044 114.355 76.1583 115.207 77.7278 115.572C79.2974 115.936 80.6091 115.628 80.626 115.728Z" fill="#8E4842"/>
<path d="M79.8635 114.568C79.8131 114.641 79.2357 114.344 78.6247 113.839C78.0137 113.335 77.6101 112.836 77.6717 112.774C77.7334 112.713 78.2323 113.094 78.8377 113.587C79.4431 114.08 79.914 114.49 79.8635 114.568Z" fill="#8E4842"/>
<path d="M81.5621 111.782C81.5117 111.855 80.9399 111.564 80.3682 111.031C79.7964 110.498 79.46 109.96 79.5273 109.91C79.5946 109.859 80.043 110.285 80.5924 110.796C81.1417 111.306 81.6126 111.704 81.5621 111.782Z" fill="#8E4842"/>
<path d="M83.3502 109.534C83.2605 109.574 82.9354 108.974 82.4253 108.307C81.9152 107.64 81.4163 107.186 81.4723 107.096C81.5284 107.006 82.145 107.399 82.6831 108.105C83.0519 108.498 83.2856 108.999 83.3502 109.534Z" fill="#8E4842"/>
<path d="M85.5309 213.497C85.5736 213.322 85.5736 213.139 85.5309 212.964C85.44 212.48 85.2491 212.02 84.9703 211.613C84.8792 211.472 84.772 211.342 84.6508 211.226C84.5714 211.151 84.4732 211.099 84.3666 211.076C84.26 211.052 84.149 211.058 84.0454 211.092C83.9844 211.113 83.929 211.148 83.8833 211.193C83.8377 211.239 83.803 211.294 83.7819 211.355C83.7426 211.472 83.7426 211.598 83.7819 211.714C83.8585 211.909 83.9523 212.096 84.0622 212.275C84.2696 212.628 84.4434 212.975 84.7125 213.396C84.7909 213.509 84.8986 213.598 85.0241 213.654C85.1495 213.711 85.2879 213.732 85.4244 213.715C85.675 213.67 85.9113 213.567 86.1139 213.412C86.4851 213.14 86.8237 212.826 87.1229 212.476C87.267 212.31 87.4018 212.136 87.5265 211.955C87.6628 211.778 87.7637 211.576 87.8236 211.361C87.8571 211.234 87.8451 211.1 87.7898 210.981C87.7345 210.862 87.6394 210.766 87.5209 210.711C87.4099 210.678 87.2924 210.674 87.1796 210.7C87.0668 210.725 86.9623 210.779 86.8762 210.856C86.6199 211.08 86.3938 211.336 86.2036 211.619C85.9215 212.015 85.6969 212.449 85.5365 212.908C85.4627 213.07 85.4244 213.246 85.4244 213.424C85.69 212.834 86.011 212.271 86.3829 211.742C86.5729 211.49 86.7911 211.261 87.0332 211.058C87.1621 210.968 87.3191 210.907 87.4144 210.957C87.4697 210.99 87.5122 211.041 87.5346 211.101C87.5571 211.161 87.5582 211.227 87.5377 211.288C87.4796 211.463 87.3903 211.626 87.2742 211.77C87.1565 211.938 87.0276 212.101 86.8931 212.263C86.6029 212.589 86.2798 212.884 85.9289 213.143C85.7648 213.27 85.5724 213.354 85.3683 213.39C85.2847 213.4 85.1998 213.387 85.1235 213.351C85.0471 213.316 84.9824 213.259 84.9367 213.188C84.7181 212.869 84.505 212.471 84.2976 212.14C84.2023 211.966 84.0846 211.798 84.0286 211.658C83.9725 211.518 84.0286 211.406 84.1126 211.361C84.3537 211.266 84.5947 211.54 84.7573 211.77C85.1217 212.292 85.3842 212.877 85.5309 213.497Z" fill="#263238"/>
<path d="M71.7577 213.967L64.9189 228.794L53.8813 223.693L60.9557 205.346L71.7577 213.967Z" fill="#8E4842"/>
<path d="M66.1859 227.802L62.1891 235.426C62.1891 235.426 72.4194 246.004 71.4608 248.369L47.4126 236.838L54.016 221.552L66.1859 227.802Z" fill="#090909"/>
<path d="M55.2773 230.818C55.013 230.784 54.7454 230.846 54.5225 230.992C54.2997 231.138 54.136 231.358 54.0608 231.614C54.0101 231.877 54.0628 232.15 54.2079 232.375C54.353 232.601 54.5794 232.762 54.84 232.825C55.1208 232.867 55.4073 232.804 55.6443 232.648C55.8813 232.492 56.0521 232.253 56.1237 231.978C56.1475 231.698 56.0615 231.419 55.8838 231.2C55.706 230.982 55.4504 230.841 55.1708 230.807" fill="#E0E0E0"/>
<g opacity="0.6">
<path d="M47.4351 236.838L48.4329 234.921L71.1189 246.693C71.1189 246.693 71.9653 247.669 71.4833 248.375L47.4351 236.838Z" fill="white"/>
</g>
<path d="M62.6599 235.487C62.6038 235.605 61.9872 235.375 61.2304 235.487C60.4737 235.6 59.9243 235.936 59.8402 235.835C59.7561 235.734 60.255 235.146 61.1744 235.039C62.0937 234.933 62.7383 235.392 62.6599 235.487Z" fill="#263238"/>
<path d="M64.6836 237.741C64.6836 237.87 64.0502 237.825 63.4167 238.128C62.7833 238.43 62.4133 238.907 62.2956 238.845C62.1779 238.784 62.4245 238.083 63.2261 237.724C64.0277 237.365 64.734 237.629 64.6836 237.741Z" fill="#263238"/>
<path d="M64.6667 241.446C64.549 241.446 64.6668 240.757 65.2778 240.258C65.8888 239.759 66.5615 239.765 66.5615 239.888C66.5615 240.011 66.0626 240.191 65.5637 240.605C65.0647 241.02 64.7901 241.491 64.6667 241.446Z" fill="#263238"/>
<path d="M63.809 232.556C63.7081 232.64 63.2484 232.219 62.5645 231.945C61.8806 231.67 61.2584 231.631 61.2472 231.502C61.236 231.373 61.9311 231.194 62.7327 231.502C63.5343 231.81 63.9099 232.488 63.809 232.556Z" fill="#263238"/>
<path d="M68.4618 225.823L86.4952 180.703C86.4952 180.703 86.086 173.001 84.6677 170.574C83.2495 168.147 40.2991 153.959 40.2991 153.959C40.2991 153.959 29.3625 151.324 22.0639 153.959C14.7654 156.594 9.29986 165.731 10.2921 170.776C11.2843 175.821 15.5782 179.56 15.5782 179.56L47.166 180.502L64.3809 186.78L52.7884 220.005L68.4618 225.823Z" fill="#263238"/>
<path d="M84.4994 194.992L84.9086 211.31L72.7499 211.613L71.001 192.027L84.4994 194.992Z" fill="#8E4842"/>
<path d="M85.6318 209.853L85.4076 218.458C85.4076 218.458 99.2535 223.43 99.4217 225.98L72.7557 226.249L71.9316 209.617L85.6318 209.853Z" fill="#090909"/>
<path d="M77.1504 217.387C76.8946 217.467 76.6776 217.64 76.5411 217.87C76.4045 218.101 76.358 218.374 76.4104 218.637C76.4817 218.895 76.6492 219.117 76.8786 219.255C77.108 219.394 77.3818 219.439 77.6437 219.382C77.9139 219.296 78.1425 219.112 78.2853 218.867C78.4282 218.621 78.4751 218.332 78.4172 218.054C78.3164 217.791 78.1172 217.578 77.8618 217.46C77.6065 217.342 77.3151 217.327 77.0495 217.421" fill="#E0E0E0"/>
<g opacity="0.6">
<path d="M72.7725 226.249L72.8229 224.086L98.3734 224.646C98.3734 224.646 99.5618 225.151 99.4385 225.992L72.7725 226.249Z" fill="white"/>
</g>
<path d="M85.8392 218.317C85.8392 218.446 85.1833 218.514 84.5499 218.94C83.9164 219.366 83.5745 219.915 83.4568 219.864C83.339 219.814 83.524 219.057 84.3032 218.558C85.0824 218.059 85.8672 218.2 85.8392 218.317Z" fill="#263238"/>
<path d="M88.6477 219.444C88.6814 219.573 88.1152 219.797 87.6779 220.352C87.2407 220.907 87.1174 221.473 86.9941 221.473C86.8707 221.473 86.7698 220.733 87.3304 220.049C87.891 219.366 88.6421 219.321 88.6477 219.444Z" fill="#263238"/>
<path d="M90.2902 222.779C90.1724 222.807 89.9875 222.157 90.2902 221.44C90.5929 220.722 91.2263 220.436 91.2824 220.543C91.3384 220.649 90.9628 221.036 90.7218 221.625C90.4808 222.213 90.3967 222.763 90.2902 222.779Z" fill="#263238"/>
<path d="M85.5701 215.178C85.5196 215.296 84.9198 215.122 84.1855 215.178C83.4512 215.234 82.8794 215.475 82.8065 215.363C82.7336 215.251 83.283 214.803 84.1519 214.73C85.0207 214.657 85.6374 215.072 85.5701 215.178Z" fill="#263238"/>
<path d="M77.397 149.676C77.397 149.676 84.6844 149.116 85.4916 156.997C86.2988 164.879 87.0948 201.775 87.0948 201.775L70.1097 203.193L67.475 165.507L40.3269 153.959C40.3269 153.959 72.5369 148.667 77.397 149.676Z" fill="#263238"/>
<path d="M47.3845 139.014C47.3845 139.014 51.8017 151.408 50.9609 152.787C50.12 154.166 38.7574 159.851 38.7574 159.851L10.3143 170.776C10.3143 170.776 7.3938 166.129 7.3938 159.004C7.3938 151.879 17.2878 139.026 17.2878 139.026L47.3845 139.014Z" fill="#263238"/>
<path d="M38.9536 153.348C38.9958 153.377 39.0409 153.401 39.0882 153.421L39.4918 153.606L41.0669 154.307L46.9809 156.885L67.391 165.669L67.2957 165.54C67.5536 169.262 67.8563 173.282 68.1198 177.441C68.8149 187.167 69.4539 196.13 69.9584 203.227V203.356H70.0874L82.487 202.268L85.9009 201.949L86.7922 201.859L87.0949 201.814C86.9923 201.806 86.8892 201.806 86.7866 201.814L85.8953 201.87L82.4758 202.123L70.0649 203.098L70.2051 203.216C69.7174 196.125 69.0839 187.156 68.4337 177.43C68.1422 173.27 67.8731 169.251 67.5928 165.529V165.439L67.5088 165.4L47.0538 156.711L41.1062 154.222L39.5142 153.567L39.0994 153.404C39.0523 153.382 39.0036 153.363 38.9536 153.348Z" fill="#455A64"/>
<path d="M16.3347 154.564C16.6087 154.522 16.8774 154.451 17.1363 154.351L19.2777 153.656C21.6148 152.867 24.0101 152.261 26.4417 151.846C28.8744 151.449 31.3579 151.481 33.7795 151.941C35.6293 152.328 36.6944 152.855 36.7168 152.793C36.487 152.637 36.2384 152.511 35.9769 152.417C35.2823 152.125 34.564 151.893 33.8299 151.722C31.3828 151.189 28.8568 151.124 26.3856 151.532C23.9345 151.946 21.5269 152.586 19.1936 153.443C18.2967 153.763 17.5792 154.038 17.0803 154.234C16.8231 154.323 16.5737 154.434 16.3347 154.564Z" fill="#455A64"/>
<path d="M20.354 148.034C21.1829 147.983 22.014 147.983 22.8429 148.034C23.6109 148.084 24.5246 148.202 25.5336 148.32C26.5426 148.437 27.6582 148.578 28.8129 148.796C30.7887 149.111 32.6826 149.814 34.3849 150.865C35.0642 151.338 35.7104 151.856 36.3189 152.417C36.2073 152.221 36.0675 152.041 35.9041 151.885C35.4837 151.432 35.0157 151.026 34.5083 150.674C32.8065 149.549 30.8836 148.802 28.869 148.482C27.703 148.264 26.5819 148.135 25.5673 148.028C24.5526 147.922 23.6333 147.832 22.8541 147.81C22.2401 147.782 21.6249 147.809 21.0155 147.888C20.7891 147.905 20.5664 147.954 20.354 148.034Z" fill="#455A64"/>
<path d="M32.9164 48.4552C29.6484 47.8946 26.7502 49.1559 24.0091 51.0002C21.2036 52.9722 19.0656 55.7522 17.8799 58.9699C16.6941 62.1876 16.517 65.6902 17.372 69.0111C17.8454 70.6988 18.6557 72.2732 19.754 73.6393C20.8523 75.0054 22.2158 76.135 23.7624 76.9599C28.0171 79.1181 33.4602 78.3669 37.272 75.4856C41.0839 72.6043 43.2532 67.8451 43.4382 63.0747C43.6148 59.7663 42.7481 56.486 40.9605 53.6965C40.0543 52.3183 38.8738 51.1417 37.4927 50.2399C36.1116 49.3382 34.5595 48.7306 32.9333 48.4552" fill="#263238"/>
<path d="M23.611 59.5824C24.0931 58.3267 23.9025 56.9309 24.0931 55.6024C24.5135 52.6818 26.8959 50.3387 29.5866 49.2007C32.1203 48.1413 35.1922 48.3711 38.2641 49.3577C40.383 49.9999 42.275 51.2327 43.7184 52.9117C44.6369 54.0508 45.269 55.3935 45.5616 56.8272C45.8542 58.261 45.7988 59.744 45.4001 61.152L30.4555 58.977C29.0541 60.1317 27.619 61.3145 25.9205 61.9592C25.4309 62.1739 24.8942 62.2589 24.3621 62.2058C24.0971 62.1743 23.8468 62.0671 23.641 61.8971C23.4353 61.7272 23.2828 61.5015 23.2018 61.2472C23.0672 60.6811 23.4036 60.1261 23.611 59.5824Z" fill="#263238"/>
<path d="M38.5836 53.4835L25.5337 56.2526C24.9289 56.2928 24.3607 56.5567 23.9399 56.9931C23.5192 57.4294 23.276 58.0068 23.2578 58.6126L23.4148 86.8595C23.428 88.788 24.074 90.6589 25.2534 92.1848L26.4979 93.788C29.3399 97.4485 35.0857 97.0786 37.2551 92.9864C37.3878 92.754 37.4896 92.5053 37.5578 92.2465C37.597 91.9942 37.6643 91.8261 37.6755 91.613L37.9278 88.8551C38.0511 86.3437 38.0735 83.81 38.0735 83.81C38.0735 83.81 43.4157 83.1373 44.8003 76.2536C45.4786 72.8341 45.5234 67.178 45.4113 62.5534C45.2936 58.4108 42.743 53.2088 38.5836 53.4835Z" fill="#8E4842"/>
<path d="M43.41 67.8787C43.4027 68.1097 43.3054 68.3287 43.1389 68.4889C42.9724 68.6492 42.7498 68.738 42.5187 68.7364C42.4053 68.7417 42.2919 68.7241 42.1854 68.6846C42.0788 68.6451 41.9814 68.5846 41.8987 68.5067C41.8161 68.4287 41.75 68.335 41.7043 68.2309C41.6587 68.1269 41.6344 68.0148 41.6331 67.9012C41.6417 67.6701 41.7393 67.4514 41.9053 67.2905C42.0714 67.1297 42.2932 67.0392 42.5244 67.0379C42.6381 67.0334 42.7516 67.0517 42.8582 67.0918C42.9647 67.1319 43.0621 67.193 43.1447 67.2713C43.2273 67.3497 43.2933 67.4439 43.3389 67.5482C43.3844 67.6525 43.4086 67.7649 43.41 67.8787Z" fill="#263238"/>
<path d="M44.0603 65.4627C43.9426 65.5748 43.2923 65.0535 42.3338 65.0199C41.3752 64.9862 40.6521 65.4347 40.5624 65.3114C40.4727 65.188 40.6297 65.0535 40.9436 64.8461C41.3686 64.573 41.8684 64.4398 42.373 64.4649C42.8686 64.4818 43.3459 64.6566 43.7352 64.9638C44.0211 65.2049 44.1164 65.4179 44.0603 65.4627Z" fill="#263238"/>
<path d="M34.8446 67.6601C34.8388 67.8921 34.7421 68.1125 34.5754 68.2739C34.4087 68.4354 34.1854 68.5249 33.9533 68.5234C33.8403 68.5279 33.7275 68.5097 33.6217 68.4699C33.5158 68.4301 33.419 68.3695 33.3369 68.2916C33.2549 68.2137 33.1893 68.1202 33.144 68.0166C33.0987 67.9129 33.0747 67.8013 33.0732 67.6882C33.0791 67.4572 33.175 67.2376 33.3405 67.0763C33.5059 66.915 33.7279 66.8248 33.9589 66.8249C34.0722 66.8204 34.1853 66.8386 34.2915 66.8783C34.3976 66.9181 34.4948 66.9786 34.5773 67.0564C34.6598 67.1342 34.7259 67.2276 34.7718 67.3313C34.8177 67.435 34.8425 67.5468 34.8446 67.6601Z" fill="#263238"/>
<path d="M34.9848 65.2329C34.8671 65.345 34.2169 64.818 33.2583 64.7844C32.2997 64.7508 31.5766 65.1992 31.4869 65.0815C31.3972 64.9638 31.5542 64.8236 31.8737 64.6106C32.2985 64.3417 32.7952 64.2088 33.2975 64.2294C33.7952 64.2494 34.2739 64.426 34.6653 64.734C34.9456 64.9694 35.0409 65.1824 34.9848 65.2329Z" fill="#263238"/>
<path d="M37.8493 72.4978C38.3606 72.366 38.8853 72.2927 39.4132 72.2792C39.6599 72.2792 39.8897 72.2231 39.9402 72.0606C39.969 71.8097 39.9221 71.5559 39.8056 71.3318C39.5982 70.732 39.3796 70.1042 39.1554 69.4427C38.2529 66.7576 37.6138 64.5546 37.7203 64.521C37.8268 64.4873 38.6509 66.6343 39.5478 69.3194C39.7608 69.9809 39.9682 70.6087 40.1644 71.2141C40.3084 71.5145 40.3402 71.8565 40.2541 72.1783C40.2146 72.2624 40.1569 72.3368 40.0851 72.3959C40.0134 72.455 39.9294 72.4975 39.8393 72.5202C39.7028 72.5484 39.5637 72.5616 39.4244 72.5595C38.899 72.6088 38.3693 72.588 37.8493 72.4978Z" fill="#263238"/>
<path d="M38.0734 83.838C34.8113 83.7635 31.6341 82.7833 28.897 81.0071C28.897 81.0071 31.0383 85.8897 37.9949 85.4917L38.0734 83.838Z" fill="#8E4842"/>
<path d="M37.3559 74.7849C37.1829 74.5492 36.9525 74.3616 36.6867 74.2399C36.4208 74.1183 36.1282 74.0666 35.8367 74.0898C35.6214 74.1012 35.4107 74.1569 35.2178 74.2533C35.0249 74.3498 34.854 74.4849 34.7156 74.6504C34.5844 74.803 34.5024 74.9918 34.4803 75.1919C34.4583 75.3919 34.4974 75.594 34.5923 75.7715C34.7395 75.9482 34.9358 76.0771 35.1564 76.1419C35.3769 76.2068 35.6118 76.2047 35.8311 76.1359C36.2898 75.9948 36.715 75.7621 37.0812 75.452C37.1932 75.3819 37.2903 75.2905 37.3671 75.1829C37.4023 75.1297 37.421 75.0673 37.421 75.0036C37.421 74.9398 37.4023 74.8774 37.3671 74.8242" fill="#8E4842"/>
<path d="M35.0127 73.0527C35.1697 73.0527 35.1305 74.0842 35.9881 74.8577C36.8458 75.6313 37.9557 75.5585 37.9613 75.7042C37.9613 75.7659 37.7035 75.8948 37.2382 75.8892C36.6294 75.8734 36.0457 75.6431 35.5901 75.2389C35.1571 74.8571 34.8881 74.323 34.839 73.7478C34.7941 73.2938 34.9399 73.0415 35.0127 73.0527Z" fill="#263238"/>
<path d="M34.9286 62.3964C34.8277 62.6543 33.8748 62.4917 32.748 62.5814C31.6213 62.6711 30.7076 62.9458 30.5674 62.7047C30.5058 62.5926 30.6683 62.3516 31.0439 62.1161C31.5418 61.8215 32.1031 61.6504 32.6808 61.6172C33.2544 61.5684 33.8313 61.6588 34.3625 61.8807C34.7941 62.0601 34.9735 62.2731 34.9286 62.3964Z" fill="#263238"/>
<path d="M43.9425 61.2753C43.7688 61.4883 43.1185 61.236 42.3281 61.1912C41.5377 61.1464 40.8594 61.2809 40.7137 61.0511C40.6464 60.9389 40.7641 60.7259 41.0612 60.5297C41.4636 60.2923 41.93 60.1865 42.3954 60.227C42.8592 60.252 43.3039 60.4205 43.6679 60.7091C43.9369 60.9446 44.021 61.1744 43.9425 61.2753Z" fill="#263238"/>
<path d="M21.2175 57.5644C22.574 53.59 28.5048 48.1749 32.6642 48.5505L39.2788 52.6931C39.0381 53.8306 38.4942 54.8818 37.7047 55.7355C36.9153 56.5891 35.9096 57.2133 34.7943 57.542C33.6003 57.8783 32.1765 57.9512 31.4309 58.9546C30.6854 59.958 31.0834 61.4995 30.3939 62.5534C29.4353 64.0221 26.9072 63.8988 26.1784 65.4908C25.8645 66.1859 26.0047 67.0267 25.6739 67.733C25.2367 68.6523 22.8711 69.7791 21.9013 69.4539C20.9316 69.1288 20.9652 67.4752 20.6681 66.6007C20.2857 65.617 20.258 64.5308 20.5896 63.5288C21.0717 61.5612 20.5728 59.4591 21.2175 57.5644Z" fill="#263238"/>
<path d="M24.7713 70.3116C24.7713 69.7959 24.2107 68.5571 23.7343 68.4562C22.3833 68.1927 19.928 68.2095 19.7711 71.6626C19.5581 76.3825 24.3397 75.6202 24.3565 75.4856C24.3733 75.3511 24.704 72.0942 24.7713 70.3116Z" fill="#8E4842"/>
<path d="M23.0224 73.6358C23.0224 73.6358 22.9383 73.6862 22.7926 73.7423C22.5965 73.8211 22.3776 73.8211 22.1816 73.7423C21.6883 73.5348 21.3071 72.722 21.3183 71.8756C21.3274 71.4689 21.425 71.0692 21.6042 70.704C21.656 70.5589 21.7422 70.4285 21.8555 70.3241C21.9687 70.2196 22.1056 70.1442 22.2544 70.1042C22.3494 70.0825 22.4491 70.0954 22.5354 70.1406C22.6217 70.1859 22.689 70.2604 22.7253 70.3508C22.7814 70.4854 22.7253 70.5807 22.7758 70.5863C22.8262 70.5919 22.8767 70.5134 22.8486 70.3172C22.831 70.1993 22.7713 70.0918 22.6805 70.0145C22.6182 69.9613 22.5461 69.921 22.4681 69.896C22.3901 69.8709 22.308 69.8617 22.2264 69.8688C22.0311 69.8995 21.8468 69.9795 21.6909 70.1011C21.535 70.2227 21.4125 70.3819 21.3351 70.5639C21.1173 70.9632 20.9999 71.4095 20.9932 71.8644C20.9932 72.8173 21.4248 73.731 22.1143 73.9609C22.2392 74.0028 22.3719 74.0165 22.5027 74.001C22.6336 73.9855 22.7594 73.9411 22.8711 73.8712C22.9776 73.7479 23.0224 73.6414 23.0224 73.6358Z" fill="#8E4842"/>
<path d="M20.2196 56.3704C20.2196 54.8905 18.3922 53.9263 16.9515 53.5676C15.4816 53.315 13.9701 53.6038 12.6968 54.3804C11.9401 54.7952 11.1777 55.3894 11.0151 56.2358C10.8526 57.0823 11.6598 58.0913 12.467 57.7886C12.0725 57.9177 11.7116 58.1327 11.4103 58.4183C11.1091 58.7038 10.875 59.0527 10.725 59.4397C10.575 59.8268 10.5129 60.2423 10.5431 60.6562C10.5732 61.0702 10.695 61.4723 10.8995 61.8335C11.104 62.1947 11.3862 62.506 11.7257 62.7448C12.0652 62.9837 12.4534 63.1441 12.8625 63.2146C13.2715 63.2851 13.6911 63.2638 14.091 63.1524C14.4908 63.041 14.8609 62.8421 15.1745 62.5702C14.765 63.9392 13.8984 65.1264 12.7192 65.9336C13.939 66.1086 15.1833 65.9592 16.3269 65.5003C17.4705 65.0415 18.473 64.2894 19.2334 63.3198C19.9939 62.3502 20.4854 61.1973 20.6585 59.9773C20.8317 58.7573 20.6803 57.5132 20.2196 56.3704Z" fill="#263238"/>
<path d="M16.9346 63.8483C16.7943 63.3892 16.7336 62.9096 16.7552 62.43C16.7364 60.098 17.5025 57.8275 18.9302 55.9835C19.1998 55.5871 19.5376 55.2416 19.928 54.9633C18.9422 56.2221 18.1557 57.6249 17.5961 59.1227C16.7272 61.6452 17.0411 63.8539 16.9346 63.8483Z" fill="#2F80ED"/>
<path d="M37.8997 51.2692C38.3313 53.1919 41.263 55.6528 42.5355 57.1495C44.9796 60.0028 45.4617 60.9501 45.4392 67.335C46.594 65.132 47.4797 62.9682 47.39 60.4849C47.3356 57.9694 46.3626 55.5607 44.6545 53.7133C43.7997 52.8119 42.747 52.1218 41.5794 51.6976C40.4119 51.2734 39.1617 51.1267 37.9277 51.2692" fill="#263238"/>
<path d="M57.9175 103.783C57.9175 103.783 52.8276 95.3015 51.4149 93.5862C50.2807 92.2604 48.8552 91.2148 47.25 90.5311C46.6159 90.2574 45.9517 90.0598 45.2712 89.9425L37.9502 88.3225C37.9502 88.3225 37.9502 93.3171 32.7089 93.6254C27.4676 93.9338 23.0728 86.6408 23.0728 86.6408C23.0728 86.6408 14.6139 87.9525 12.5959 88.9952C10.5778 90.0378 7.39383 91.3552 5.64487 100.094L4.41724 108.66L18.9919 110.005L20.3877 131.665L27.6134 136.71C27.6134 136.71 47.6536 141.918 48.9148 142.26C50.1761 142.602 50.5965 110.016 50.5965 110.016C50.5965 110.016 55.7873 106.703 57.9175 103.783Z" fill="#2F80ED"/>
<path d="M48.3206 100.139C48.4387 100.337 48.5345 100.548 48.6064 100.767C48.769 101.176 48.982 101.776 49.2175 102.527C50.4429 106.463 50.948 110.588 50.7086 114.703C50.6637 115.487 50.6021 116.121 50.5348 116.558C50.52 116.786 50.4805 117.012 50.4171 117.231C50.3903 117.004 50.3903 116.774 50.4171 116.547C50.4451 116.11 50.4787 115.476 50.4955 114.691C50.5502 112.651 50.4565 110.609 50.2153 108.581C49.9625 106.557 49.5615 104.554 49.0157 102.589C48.8083 101.832 48.6233 101.221 48.4887 100.806C48.4094 100.59 48.353 100.367 48.3206 100.139Z" fill="#455A64"/>
<path d="M47.6873 135.617L20.2196 129.642L18.9528 110.022L6.74927 108.901C6.74927 108.901 7.20332 122.31 7.66859 126.278C8.34688 132.013 11.7327 139.838 13.7171 141.414C15.7015 142.989 48.8925 142.271 48.8925 142.271L47.6873 135.617Z" fill="#8E4842"/>
<path d="M63.2766 139.171C63.1853 139.361 63.0393 139.519 62.8575 139.625C62.6757 139.731 62.4663 139.78 62.2564 139.766C62.1669 139.759 62.0784 139.742 61.9929 139.715C61.3819 139.519 61.4323 138.28 61.4323 138.28L58.5286 137.809C58.5286 137.809 54.7448 140.248 53.3995 141.862C52.0541 143.477 48.6235 142.17 48.6235 142.17L47.4351 135.971L52.7884 131.133C52.7884 131.133 52.4633 131.419 52.8333 130.516C53.2033 129.614 54.8794 129.956 54.8794 129.956C55.1428 129.507 56.2415 129.35 56.2415 129.35L60.939 129.911C61.4163 129.966 61.8751 130.128 62.2816 130.384C62.6881 130.64 63.0319 130.984 63.2878 131.391L65.2778 134.536C65.2778 134.536 66.3261 136.778 66.1579 137.338C66.083 137.563 65.926 137.752 65.7181 137.866C65.5103 137.981 65.267 138.012 65.0368 137.955C65.0368 137.955 64.8069 139.446 64.4145 139.496C64.0138 139.476 63.6203 139.381 63.2542 139.216L63.2766 139.171Z" fill="#8E4842"/>
<path d="M53.2927 134.72C53.2927 134.771 53.9206 134.72 54.924 134.754C56.227 134.817 57.5152 135.058 58.7526 135.472C59.4338 135.7 60.0955 135.983 60.7314 136.318C61.292 136.638 61.8862 136.879 62.0712 137.31C62.1129 137.4 62.1302 137.499 62.1214 137.597C62.1125 137.696 62.0778 137.79 62.0207 137.871C61.9357 138.003 61.8126 138.107 61.6676 138.168C61.5344 138.214 61.3937 138.235 61.2527 138.23C61.2527 138.23 61.3985 138.358 61.7012 138.28C61.8839 138.23 62.0442 138.119 62.1552 137.966C62.236 137.864 62.2888 137.742 62.3084 137.614C62.3281 137.485 62.3139 137.353 62.2674 137.232C62.1479 136.962 61.9533 136.732 61.7068 136.57C61.4489 136.408 61.1799 136.234 60.8828 136.071C60.239 135.718 59.5656 135.422 58.8703 135.186C57.6062 134.758 56.2808 134.541 54.9464 134.541C54.3892 134.513 53.8311 134.574 53.2927 134.72Z" fill="#8E4842"/>
<path d="M52.9565 137.714C52.9565 137.804 54.8737 137.714 57.2224 137.86C59.5712 138.005 61.4547 138.286 61.4715 138.196C61.0796 138.042 60.6684 137.942 60.2495 137.899C59.2533 137.73 58.2482 137.618 57.2393 137.563C56.2292 137.506 55.2167 137.506 54.2066 137.563C53.7849 137.555 53.3643 137.606 52.9565 137.714Z" fill="#8E4842"/>
<path d="M63.2485 139.054C63.2898 138.89 63.3106 138.723 63.3102 138.555C63.3388 138.095 63.3388 137.635 63.3102 137.176C63.2942 136.855 63.2511 136.536 63.1812 136.223C63.0967 135.856 62.9405 135.509 62.7216 135.202C62.2588 134.493 61.6607 133.881 60.9614 133.403C60.271 132.925 59.516 132.547 58.7191 132.282C58.0582 132.095 57.3765 131.992 56.6899 131.974C56.1293 131.974 55.6473 131.974 55.3221 131.974C55.1523 131.962 54.9818 131.979 54.8176 132.024C55.4344 132.112 56.0558 132.165 56.6787 132.181C57.3442 132.226 58.0025 132.346 58.6407 132.54C59.4054 132.819 60.1308 133.196 60.7988 133.661C61.4601 134.125 62.0302 134.706 62.4805 135.376C62.8492 135.921 63.0607 136.558 63.0916 137.215C63.2149 138.33 63.1868 139.054 63.2485 139.054Z" fill="#8E4842"/>
<path d="M56.4712 130.533C56.4712 130.578 57.1719 130.6 58.293 130.729C59.4142 130.858 61.0958 130.97 62.088 132.461C63.0427 133.574 63.8388 134.813 64.4536 136.144C64.6571 136.716 64.8073 137.305 64.9021 137.904C64.9352 137.74 64.9352 137.57 64.9021 137.406C64.8734 136.95 64.7809 136.501 64.6274 136.071C64.0592 134.688 63.2697 133.406 62.2899 132.276C62.0282 131.93 61.7229 131.619 61.3817 131.351C61.0452 131.108 60.6644 130.933 60.2606 130.836C59.61 130.661 58.9432 130.554 58.2706 130.516C57.6722 130.451 57.0682 130.456 56.4712 130.533Z" fill="#8E4842"/>
<path d="M54.414 140.864C54.5134 140.801 54.6071 140.73 54.6943 140.651L55.4791 140.018C56.4666 139.25 57.4979 138.541 58.5678 137.893H58.5005L61.4042 138.386L61.3033 138.263C61.2941 138.502 61.3129 138.741 61.3594 138.975C61.3976 139.236 61.5127 139.48 61.6901 139.676C61.7966 139.772 61.9293 139.835 62.0713 139.855C62.2066 139.88 62.3453 139.88 62.4805 139.855C62.7628 139.814 63.0201 139.67 63.2036 139.452C63.2527 139.4 63.296 139.344 63.3326 139.283L63.3606 139.233L63.1924 139.295L63.2821 139.328C63.4055 139.379 63.5288 139.424 63.6577 139.463C63.7866 139.502 63.9156 139.536 64.0557 139.564C64.1285 139.57 64.2016 139.57 64.2743 139.564C64.3668 139.569 64.4593 139.552 64.5434 139.513C64.6709 139.413 64.768 139.279 64.8237 139.126C64.883 138.998 64.9317 138.865 64.9694 138.728C65.0483 138.458 65.1101 138.183 65.1544 137.904L64.9862 138.022C65.1832 138.063 65.3875 138.051 65.5779 137.985C65.7683 137.92 65.9376 137.805 66.0681 137.652C66.1977 137.494 66.269 137.296 66.2699 137.092C66.2543 136.902 66.2205 136.714 66.169 136.531C65.9489 135.817 65.6811 135.118 65.3674 134.44L64.308 132.758L63.6353 131.699C63.4309 131.328 63.1845 130.982 62.9009 130.668C62.6006 130.365 62.2421 130.127 61.8471 129.967C61.4622 129.824 61.0576 129.741 60.6475 129.72L56.2246 129.221H56.191C55.9249 129.264 55.6639 129.333 55.4118 129.429C55.1428 129.509 54.9069 129.674 54.7391 129.9L54.9017 129.849C54.6627 129.739 54.4002 129.689 54.1372 129.703C53.8743 129.718 53.619 129.797 53.3938 129.933C53.0015 130.219 52.7344 130.644 52.6482 131.122L52.6819 131.06L48.9933 134.378L48.0011 135.292C47.8788 135.392 47.7679 135.505 47.6704 135.629C47.8019 135.542 47.9257 135.445 48.0404 135.337L49.0774 134.468L52.8276 131.228H52.8556V131.189C52.9358 130.773 53.1701 130.403 53.5115 130.152C53.7042 130.043 53.9203 129.981 54.1416 129.972C54.363 129.964 54.5832 130.008 54.784 130.101L54.8849 130.141L54.9465 130.051C55.0928 129.877 55.2882 129.752 55.5071 129.692C55.7415 129.607 55.9837 129.545 56.2302 129.507H56.191L60.6138 130.028C60.9971 130.051 61.375 130.13 61.735 130.264C62.0928 130.407 62.4172 130.623 62.6879 130.897C62.9555 131.197 63.1887 131.526 63.383 131.878L64.0557 132.943C64.4201 133.504 64.7788 134.065 65.1152 134.625C65.4271 135.285 65.6912 135.967 65.9056 136.666C65.9551 136.828 65.9871 136.995 66.0009 137.164C66.0039 137.31 65.9541 137.451 65.8607 137.562C65.7654 137.674 65.6414 137.758 65.5021 137.804C65.3629 137.85 65.2136 137.858 65.0703 137.826H64.919V137.966C64.8762 138.233 64.8182 138.497 64.7452 138.756C64.6976 138.988 64.5937 139.203 64.4425 139.384C64.4035 139.39 64.3638 139.39 64.3248 139.384H64.1454C64.0277 139.384 63.9044 139.328 63.781 139.295L63.4223 139.171L63.3382 139.138L63.1644 139.199V139.233C63.1373 139.281 63.1053 139.326 63.0691 139.367C62.9267 139.538 62.7277 139.651 62.5085 139.687C62.4032 139.709 62.2944 139.709 62.189 139.687C62.0901 139.678 61.9963 139.638 61.92 139.575C61.674 139.22 61.5626 138.788 61.606 138.358V138.252H61.5051L58.5902 137.798H58.5566H58.5285C57.4621 138.465 56.4415 139.203 55.4735 140.007C55.1371 140.292 54.8849 140.522 54.7167 140.679C54.6094 140.73 54.508 140.792 54.414 140.864Z" fill="#8E4842"/>
<path d="M98.8779 121.138L62.7384 121.435C61.5612 121.435 60.4456 121.996 60.2663 123.156L56.3423 149.503H37.6979C37.4237 149.522 37.1672 149.645 36.9799 149.846C36.7926 150.048 36.6885 150.312 36.6885 150.587C36.6885 150.862 36.7926 151.127 36.9799 151.328C37.1672 151.529 37.4237 151.652 37.6979 151.672H97.1626L101.227 123.868C101.277 123.53 101.255 123.185 101.16 122.856C101.065 122.528 100.901 122.224 100.678 121.965C100.455 121.706 100.179 121.498 99.8682 121.355C99.5575 121.212 99.2198 121.138 98.8779 121.138Z" fill="#E0E0E0"/>
<path d="M98.8778 121.138C99.0664 121.13 99.2551 121.149 99.4384 121.194C99.9193 121.308 100.353 121.568 100.68 121.938C101.007 122.309 101.212 122.771 101.266 123.263C101.28 123.761 101.234 124.26 101.131 124.748L100.61 128.42C99.814 133.941 98.6704 141.901 97.2466 151.689V151.784H97.1513L39.4636 151.818H37.9109C37.6287 151.844 37.3447 151.79 37.0924 151.661C36.8995 151.555 36.7386 151.399 36.6265 151.21C36.5145 151.02 36.4553 150.804 36.4553 150.584C36.4553 150.364 36.5145 150.148 36.6265 149.959C36.7386 149.77 36.8995 149.614 37.0924 149.508C37.3456 149.382 37.6293 149.329 37.9109 149.357H56.3198L56.1797 149.48C57.5979 140.046 58.9264 131.245 60.1036 123.347C60.1425 122.819 60.3835 122.327 60.7763 121.973C61.1685 121.642 61.6468 121.431 62.1553 121.362C62.6396 121.315 63.1263 121.298 63.6127 121.312H65.031L70.474 121.278L80.1438 121.216L93.9112 121.144H98.8666C98.8666 121.144 98.7601 121.144 98.5471 121.144H97.5941L93.9112 121.194L80.1438 121.345L70.474 121.446L65.031 121.497H63.6127C63.1394 121.488 62.666 121.505 62.1945 121.547C61.7289 121.609 61.2909 121.803 60.9332 122.108C60.7588 122.264 60.6171 122.454 60.5161 122.666C60.4151 122.877 60.3568 123.107 60.3447 123.341C59.1675 131.239 57.8557 140.04 56.4207 149.474V149.598H37.9221C37.6917 149.569 37.4579 149.608 37.2494 149.71C37.0597 149.819 36.9133 149.99 36.8347 150.194C36.7561 150.398 36.7501 150.623 36.8178 150.831C36.8979 151.042 37.0484 151.218 37.2438 151.33C37.4544 151.432 37.6894 151.473 37.9221 151.448H39.4748L97.1625 151.481L97.0504 151.577C98.5023 141.795 99.6795 133.84 100.498 128.319C100.705 126.945 100.89 125.718 101.058 124.658C101.163 124.178 101.213 123.687 101.21 123.195C101.163 122.715 100.969 122.262 100.655 121.895C100.341 121.529 99.9223 121.269 99.4552 121.149C99.2631 121.136 99.0704 121.132 98.8778 121.138Z" fill="#263238"/>
<path d="M79.2749 138.336C80.5257 138.336 81.5396 137.322 81.5396 136.071C81.5396 134.821 80.5257 133.807 79.2749 133.807C78.0242 133.807 77.0103 134.821 77.0103 136.071C77.0103 137.322 78.0242 138.336 79.2749 138.336Z" fill="white"/>
<path d="M57.7773 151.425C57.8277 151.425 58.9769 144.727 60.3446 136.447C61.7124 128.167 62.7831 121.441 62.7326 121.435C62.6822 121.43 61.5274 128.134 60.1596 136.413C58.7919 144.693 57.7324 151.42 57.7773 151.425Z" fill="#263238"/>
</svg>
