<svg width="390" height="100" viewBox="0 0 390 100" fill="none" xmlns="http://www.w3.org/2000/svg">
<g clip-path="url(#clip0_2193_4612)">
<path fill-rule="evenodd" clip-rule="evenodd" d="M184.081 0C196.384 0.000393893 206.358 9.6864 206.358 21.6306C206.358 22.2966 206.327 22.96 206.283 23.6207H225.047C243.299 23.6207 250.465 46.6017 235.279 56.4307L215.423 69.2805C211.148 72.0482 212.32 78.4358 217.316 79.6C218.95 79.9802 220.675 79.6645 222.054 78.7335L233.575 70.4818C234.012 70.1687 234.539 70 235.081 70H266.722C267.968 70 268.475 71.5703 267.456 72.2725L233.963 95.3493C227.699 99.5798 219.869 101.012 212.45 99.2832C189.761 93.9965 184.443 65.0037 203.857 52.4372L217.106 43.8643H196.774H183.763C180.026 43.8643 176.499 42.9815 173.395 41.4227C176.703 43.6337 184.882 46.0942 191.782 46.5627C192.397 46.5627 193.395 47.0963 192.206 48.2957L150.433 89.2667C149.954 89.7363 149.305 90 148.627 90H123.278C122.142 90 121.572 88.6533 122.377 87.8658L171.141 40.118C165.133 36.1772 161.181 29.5033 161.181 21.9337C161.181 9.82187 171.294 0 183.769 0H184.081ZM184.533 16.8729C181.654 16.8729 179.32 18.3834 179.32 20.2468C179.321 21.783 180.909 23.0752 183.08 23.4823C183.292 23.5712 183.525 23.6207 183.769 23.6207H185.317C185.32 23.6056 185.317 23.5896 185.32 23.5746C187.825 23.3288 189.744 21.936 189.746 20.2468C189.746 18.3834 187.412 16.8729 184.533 16.8729Z" fill="#1B1C3A"/>
</g>
<defs>
<clipPath id="clip0_2193_4612">
<rect width="146" height="100" fill="white" transform="translate(122)"/>
</clipPath>
</defs>
</svg>
