<svg width="146" height="100" viewBox="0 0 146 100" fill="none" xmlns="http://www.w3.org/2000/svg">
<g clip-path="url(#clip0_2193_5352)">
<path fill-rule="evenodd" clip-rule="evenodd" d="M62.0815 0C74.3842 0.000393893 84.3578 9.6864 84.358 21.6306C84.358 22.2966 84.3268 22.96 84.2833 23.6207H103.047C121.299 23.6207 128.465 46.6017 113.279 56.4307L93.4226 69.2805C89.1481 72.0482 90.3199 78.4358 95.3163 79.6C96.9498 79.9802 98.6751 79.6645 100.054 78.7335L111.575 70.4818C112.012 70.1687 112.539 70 113.081 70H144.722C145.968 70 146.475 71.5703 145.456 72.2725L111.963 95.3493C105.699 99.5798 97.8693 101.012 90.4498 99.2832C67.7606 93.9965 62.4429 65.0037 81.8569 52.4372L95.1059 43.8643H74.7741H61.7625C58.0262 43.8643 54.4993 42.9815 51.3948 41.4227C54.7032 43.6337 62.8819 46.0942 69.782 46.5627C70.3967 46.5627 71.3953 47.0963 70.2061 48.2957L28.4327 89.2667C27.954 89.7363 27.3045 90 26.6274 90H1.27847C0.141585 90 -0.427609 88.6533 0.376514 87.8658L49.1413 40.118C43.1327 36.1772 39.1814 29.5033 39.1806 21.9337C39.1806 9.82187 49.2939 0 61.7693 0H62.0815ZM62.5331 16.8729C59.6541 16.8729 57.3201 18.3834 57.3201 20.2468C57.3214 21.783 58.9095 23.0752 61.0804 23.4823C61.2915 23.5712 61.5246 23.6207 61.7693 23.6207H63.3169C63.3197 23.6056 63.3174 23.5896 63.3202 23.5746C65.8246 23.3288 67.7445 21.936 67.7458 20.2468C67.7458 18.3834 65.4118 16.8729 62.5331 16.8729Z" fill="#1B1C3A"/>
</g>
<defs>
<clipPath id="clip0_2193_5352">
<rect width="146" height="100" fill="white"/>
</clipPath>
</defs>
</svg>
