<svg width="24" height="24" viewBox="0 0 24 24" fill="none" xmlns="http://www.w3.org/2000/svg">
<path fill-rule="evenodd" clip-rule="evenodd" d="M11.4459 15.1161L8.41479 16.8661C7.45824 17.4184 7.13049 18.6416 7.68274 19.5982C8.23504 20.5548 9.45824 20.8825 10.4148 20.3302L13.4459 18.5802L11.4459 15.1161ZM7.91479 16.0001C6.47994 16.8285 5.98829 18.6633 6.81674 20.0982C7.64514 21.5331 9.47994 22.0247 10.9148 21.1963L14.5954 19.0713C14.715 19.0022 14.7559 18.8493 14.6869 18.7298L11.9369 13.9666C11.8679 13.847 11.715 13.8061 11.5954 13.8751L7.91479 16.0001Z" fill="#2F80ED"/>
<path fill-rule="evenodd" clip-rule="evenodd" d="M12.4369 14.8326L15.6845 12.9576C16.5215 12.4743 17.5918 12.7611 18.075 13.5981C18.5583 14.4352 18.2715 15.5054 17.4345 15.9887L14.1869 17.8637L12.4369 14.8326ZM15.1845 12.0916C16.4998 11.3322 18.1817 11.7828 18.9411 13.0981C19.7005 14.4134 19.2498 16.0953 17.9345 16.8547L14.0374 19.1047C13.9178 19.1737 13.7649 19.1328 13.6959 19.0132L11.1959 14.6831C11.1268 14.5635 11.1678 14.4106 11.2874 14.3416L15.1845 12.0916Z" fill="#2F80ED"/>
<path fill-rule="evenodd" clip-rule="evenodd" d="M14.6869 18.7297C14.7559 18.8493 14.715 19.0022 14.5954 19.0712L10.9148 21.1962C9.47994 22.0246 7.64514 21.533 6.81674 20.0981C5.98829 18.6633 6.47994 16.8285 7.91479 16.0001L11.5954 13.8751C11.715 13.806 11.8679 13.847 11.9369 13.9666L15.1845 12.0916C16.4998 11.3322 18.1817 11.7828 18.9411 13.0981C19.7005 14.4134 19.2498 16.0953 17.9345 16.8547L14.6869 18.7297ZM12.4369 14.8326L14.1869 17.8637L17.4345 15.9887C18.2715 15.5054 18.5583 14.4352 18.075 13.5981C17.5918 12.7611 16.5215 12.4743 15.6845 12.9576L12.4369 14.8326ZM10.4148 20.3302C9.45824 20.8825 8.23504 20.5547 7.68274 19.5981C7.13049 18.6416 7.45824 17.4184 8.41479 16.8661L11.4459 15.1161L13.4459 18.5802L10.4148 20.3302Z" fill="#2F80ED"/>
<path fill-rule="evenodd" clip-rule="evenodd" d="M14.6954 8.6213C15.867 9.7929 17.7665 9.7929 18.9381 8.6213C20.1097 7.44975 20.1097 5.55025 18.9381 4.37868C17.7665 3.20711 15.867 3.20711 14.6954 4.37868C13.5239 5.55025 13.5239 7.44975 14.6954 8.6213ZM13.9883 9.32845C15.5504 10.8905 18.0831 10.8905 19.6452 9.32845C21.2073 7.76635 21.2073 5.23365 19.6452 3.67157C18.0831 2.10948 15.5504 2.10948 13.9883 3.67157C12.4262 5.23365 12.4262 7.76635 13.9883 9.32845Z" fill="#2F80ED"/>
<path fill-rule="evenodd" clip-rule="evenodd" d="M19.0265 9.24033L14.0768 4.29058L14.6071 3.76025L19.5569 8.70998L19.0265 9.24033Z" fill="#2F80ED"/>
<path fill-rule="evenodd" clip-rule="evenodd" d="M9.93527 11.2012L7.48222 5.24213L4.18675 10.7801L9.93527 11.2012ZM8.40692 4.86148C8.09322 4.09947 7.04427 4.02261 6.62287 4.73076L3.3274 10.2687C2.94725 10.9075 3.37228 11.7231 4.11368 11.7774L9.86222 12.1986C10.6036 12.2529 11.143 11.508 10.86 10.8206L8.40692 4.86148Z" fill="#2F80ED"/>
</svg>
