<svg width="16" height="16" viewBox="0 0 16 16" fill="none" xmlns="http://www.w3.org/2000/svg">
<path d="M14.44 6.95996L13.7866 9.74663C13.2266 12.1533 12.12 13.1266 10.04 12.9266C9.70664 12.9 9.34664 12.84 8.95998 12.7466L7.83998 12.48C5.05998 11.82 4.19998 10.4466 4.85331 7.65997L5.50664 4.86663C5.63998 4.29996 5.79998 3.80663 5.99998 3.39996C6.77998 1.78663 8.10664 1.3533 10.3333 1.87996L11.4466 2.13996C14.24 2.7933 15.0933 4.1733 14.44 6.95996Z" stroke="#1B1C3A" stroke-width="1.5" stroke-linecap="round" stroke-linejoin="round"/>
<path d="M10.04 12.9267C9.62665 13.2067 9.10665 13.44 8.47332 13.6467L7.41998 13.9934C4.77332 14.8467 3.37998 14.1334 2.51998 11.4867L1.66665 8.85336C0.813317 6.20669 1.51998 4.80669 4.16665 3.95336L5.21998 3.60669C5.49332 3.52002 5.75332 3.44669 5.99998 3.40002C5.79998 3.80669 5.63998 4.30002 5.50665 4.86669L4.85332 7.66002C4.19998 10.4467 5.05998 11.82 7.83998 12.48L8.95998 12.7467C9.34665 12.84 9.70665 12.9 10.04 12.9267Z" stroke="#1B1C3A" stroke-width="1.5" stroke-linecap="round" stroke-linejoin="round"/>
</svg>
