<svg width="21" height="21" viewBox="0 0 21 21" fill="none" xmlns="http://www.w3.org/2000/svg">
<path d="M10.25 0.75C10.5191 0.75 10.7853 0.764706 11.0488 0.787109C10.3875 1.77818 10 2.96869 10 4.25C10 7.70178 12.7982 10.5 16.25 10.5C17.5319 10.5 18.7211 10.1101 19.7119 9.44824C19.7346 9.71282 19.75 9.97998 19.75 10.25C19.75 15.4967 15.4967 19.75 10.25 19.75C5.00329 19.75 0.75 15.4967 0.75 10.25C0.75 5.00329 5.00329 0.75 10.25 0.75ZM6.25 12.5C5.28352 12.5 4.5 13.2835 4.5 14.25C4.5 15.2165 5.28352 16 6.25 16H14.25C15.2165 16 16 15.2165 16 14.25C16 13.2835 15.2165 12.5 14.25 12.5H6.25ZM6.25 8.5C5.28352 8.5 4.5 9.28348 4.5 10.25C4.5 11.2165 5.28352 12 6.25 12H10.25C11.2165 12 12 11.2165 12 10.25C12 9.28349 11.2165 8.5 10.25 8.5H6.25ZM16.25 0.75C18.183 0.75 19.75 2.317 19.75 4.25C19.75 6.183 18.183 7.75 16.25 7.75C14.317 7.75 12.75 6.183 12.75 4.25C12.75 2.317 14.317 0.75 16.25 0.75Z" stroke="#4F4F4F" stroke-width="1.5"/>
</svg>
